<?xml version="1.0" encoding="utf-8"?>
<!-- Generator: Adobe Illustrator 22.0.1, SVG Export Plug-In . SVG Version: 6.00 Build 0)  -->
<svg version="1.1" id="Ebene_1" xmlns="http://www.w3.org/2000/svg" xmlns:xlink="http://www.w3.org/1999/xlink" x="0px" y="0px"
	 viewBox="0 0 332.1 75.6" style="enable-background:new 0 0 332.1 75.6;" xml:space="preserve">
<style type="text/css">
	.st0{fill:#C1D3E2;}
	.st1{fill:#FFD400;}
</style>
<g>
	<polygon class="st0" points="16.9,0.5 0.7,37.4 4.7,37.4 17,8.8 29.3,37.4 33.3,37.4 17.1,0.5 	"/>
	<path class="st0" d="M45.8,4.7v29.2h6.8c10,0,15.6-5.4,15.6-14.6c0-9.2-5.7-14.6-15.6-14.6H45.8z M72,19.2
		c0,11.4-7.1,18.1-19.3,18.1H42.1V1.2h10.6C64.8,1.2,72,7.8,72,19.2"/>
	<polygon class="st0" points="93.6,38 93.4,38 76.5,1.2 80.5,1.2 93.5,29.7 106.4,1.2 110.4,1.2 	"/>
	<polygon class="st0" points="179.5,38 179.3,38 156,10 156,37.4 152.3,37.4 152.3,0.5 152.5,0.5 175.7,28.5 175.7,1.2 179.5,1.2 	
		"/>
	<polygon class="st0" points="214.9,4.6 196.7,4.6 196.7,17.3 212.8,17.3 212.8,20.7 196.7,20.7 196.7,33.9 215.3,33.9 215.3,37.4 
		193,37.4 193,1.2 214.9,1.2 	"/>
	<polygon class="st0" points="143.4,37.4 139.5,37.4 127.1,8.8 114.8,37.4 110.8,37.4 127,0.5 127.2,0.5 	"/>
	<path class="st0" d="M228.4,19.4c0,9,6.1,15.6,14.6,15.6c8.5,0,14.6-6.6,14.6-15.6c0-9-6.1-15.7-14.6-15.7
		C234.5,3.7,228.4,10.4,228.4,19.4 M261.4,19.3c0,11.1-7.8,19.2-18.4,19.2c-10.7,0-18.4-8.1-18.4-19.2c0-11,7.7-19.1,18.4-19.1
		C253.6,0.2,261.4,8.3,261.4,19.3"/>
	<path class="st1" d="M324,63v-0.2c0-1.1,0.8-1.9,1.9-1.9c1.1,0,1.9,0.7,1.9,1.9V63H324z M324,65.1h6.2c0.4,0,0.7-0.3,0.7-0.7v-1
		c0-3-2.3-5.2-5.1-5.2c-2.8,0-5.2,2.1-5.2,5.3v1.2c0,3.2,2.3,5.3,5.2,5.3c1.8,0,3.7-0.9,4.7-2.9c0-0.1,0.1-0.3,0.1-0.4
		c0-0.3-0.2-0.5-0.5-0.5h-2c-0.4,0-0.6,0.3-0.7,0.4c-0.5,0.5-0.9,0.7-1.6,0.7c-1.1,0-1.9-0.9-1.9-2V65.1z M311.9,63.1
		c0-1.4,0.8-2.1,1.9-2.1c1.1,0,1.7,0.7,1.9,1.6c0,0.2,0.2,0.4,0.5,0.4h2.1c0.3,0,0.5-0.2,0.5-0.5c0-0.1,0-0.2-0.1-0.5
		c-0.6-2.5-2.7-3.8-4.9-3.8c-2.8,0-5.1,2.1-5.1,5.3v1.2c0,3.2,2.3,5.3,5.1,5.3c2.9,0,4.6-2.1,4.9-3.8c0-0.1,0-0.3,0-0.4
		c0-0.3-0.2-0.5-0.5-0.5h-2.1c-0.2,0-0.4,0.1-0.5,0.4c-0.1,0.9-0.8,1.6-1.8,1.6c-1.1,0-1.9-0.7-1.9-2.1V63.1z M306.4,62.7
		c0-2.4-1-4.4-4.8-4.4c-3.5,0-4,2.1-4.3,3.1c0,0.2-0.1,0.4-0.1,0.4c0,0.3,0.2,0.5,0.5,0.5h2c0.3,0,0.5-0.2,0.5-0.4
		c0.1-0.4,0.3-0.9,1.3-0.9c0.9,0,1.7,0.3,1.7,1.6v0.4h-1.5c-1,0-5-0.2-5,3.6c0,2.8,2,3.5,3.7,3.5h0.2c1.1,0,2.2-0.5,2.6-1.3v0.4
		c0,0.4,0.3,0.7,0.7,0.7h1.6c0.4,0,0.7-0.3,0.7-0.7V62.7z M303.4,65.2v0.3c0,1.1,0,2-1.8,2h-0.3c-0.6,0-1.4-0.1-1.4-1
		c0-1.3,1.2-1.3,2.1-1.3H303.4z M293.6,69.8c0.4,0,0.7-0.3,0.7-0.7V54.6c0-0.4-0.3-0.7-0.7-0.7h-1.9c-0.4,0-0.7,0.3-0.7,0.7v14.5
		c0,0.4,0.3,0.7,0.7,0.7H293.6z M281.4,68.8c0.7,1,1.7,1.3,3.1,1.3c2.5,0,4-1.9,4-5.5v-1c0-3.5-1.4-5.3-4-5.3
		c-1.5,0-2.3,0.4-3.1,1.3v-0.4c0-0.4-0.3-0.7-0.7-0.7h-1.9c-0.4,0-0.7,0.3-0.7,0.7v14.5c0,0.4,0.3,0.7,0.7,0.7h1.9
		c0.4,0,0.7-0.3,0.7-0.7V68.8z M281.4,63.1c0-1,0.5-2.1,1.9-2.1c1.4,0,1.9,1.1,1.9,2.1v2.1c0,1-0.5,2.1-1.9,2.1
		c-1.4,0-1.9-1.1-1.9-2.1V63.1z M274.9,69.8c0.4,0,0.7-0.3,0.7-0.7v-1.5c0-0.4-0.3-0.7-0.7-0.7h-1.2c-0.7,0-0.8-0.4-0.8-0.8v-4.7h2
		c0.4,0,0.7-0.3,0.7-0.7v-1.5c0-0.4-0.3-0.7-0.7-0.7h-2v-2.2c0-0.4-0.3-0.7-0.7-0.7h-1.8c-0.4,0-0.7,0.3-0.7,0.7v1.2
		c0,0.9-0.3,1.1-1.3,1.1c-0.4,0-0.7,0.3-0.7,0.7v1.5c0,0.4,0.3,0.7,0.7,0.7h1.3v5.3c0,2,1.1,3.2,3.4,3.2H274.9z M259.6,63v-0.2
		c0-1.1,0.8-1.9,1.9-1.9c1.1,0,1.9,0.7,1.9,1.9V63H259.6z M259.6,65.1h6.2c0.4,0,0.7-0.3,0.7-0.7v-1c0-3-2.3-5.2-5.1-5.2
		c-2.8,0-5.2,2.1-5.2,5.3v1.2c0,3.2,2.3,5.3,5.2,5.3c1.8,0,3.7-0.9,4.7-2.9c0-0.1,0.1-0.3,0.1-0.4c0-0.3-0.2-0.5-0.5-0.5h-2
		c-0.4,0-0.6,0.3-0.7,0.4c-0.5,0.5-0.9,0.7-1.6,0.7c-1.1,0-1.9-0.9-1.9-2V65.1z M248.1,69.1v-2.4l1.1-1.3l2.3,3.9
		c0.2,0.2,0.4,0.5,0.8,0.5h2.4c0.3,0,0.5-0.2,0.5-0.5c0-0.2-0.3-0.7-0.4-0.9l-3.2-5.2l3-3.2c0.4-0.4,0.6-0.7,0.6-1
		c0-0.3-0.2-0.5-0.5-0.5h-2.4c-0.2,0-0.5,0.1-0.9,0.5l-3.3,3.8v-8.2c0-0.4-0.3-0.7-0.7-0.7h-1.9c-0.4,0-0.7,0.3-0.7,0.7v14.5
		c0,0.4,0.3,0.7,0.7,0.7h1.9C247.8,69.8,248.1,69.5,248.1,69.1 M237.9,69.8c0.4,0,0.7-0.3,0.7-0.7v-4.7c0-2.5,1.2-2.7,2.6-2.7h0.3
		c0.4,0,0.7-0.3,0.7-0.7v-1.9c0-0.4-0.3-0.7-0.7-0.7h-0.2c-1.2,0-2.2,0.6-2.8,1.5v-0.7c0-0.4-0.3-0.7-0.7-0.7h-1.7
		c-0.4,0-0.7,0.3-0.7,0.7v9.9c0,0.4,0.3,0.7,0.7,0.7H237.9z M232.5,62.7c0-2.4-1-4.4-4.8-4.4c-3.4,0-4,2.1-4.3,3.1
		c0,0.2-0.1,0.4-0.1,0.4c0,0.3,0.2,0.5,0.5,0.5h2c0.3,0,0.5-0.2,0.5-0.4c0.1-0.4,0.3-0.9,1.3-0.9c0.9,0,1.7,0.3,1.7,1.6v0.4H228
		c-1,0-5-0.2-5,3.6c0,2.8,2,3.5,3.7,3.5h0.2c1.1,0,2.2-0.5,2.6-1.3v0.4c0,0.4,0.3,0.7,0.7,0.7h1.6c0.4,0,0.7-0.3,0.7-0.7V62.7z
		 M229.5,65.2v0.3c0,1.1,0,2-1.8,2h-0.3c-0.6,0-1.4-0.1-1.4-1c0-1.3,1.2-1.3,2.1-1.3H229.5z M207.3,69.1v-5.5c0-1.6,0.1-2.7,1.8-2.7
		c1.5,0,1.6,0.9,1.6,2.6v5.5c0,0.4,0.3,0.7,0.7,0.7h1.9c0.4,0,0.7-0.3,0.7-0.7v-5.5c0-1.5,0.2-2.6,1.8-2.6c1.5,0,1.6,0.9,1.6,2.6
		v5.5c0,0.4,0.3,0.7,0.7,0.7h1.9c0.4,0,0.7-0.3,0.7-0.7V64c0-3.3-0.4-5.7-3.9-5.7c-1.5,0-2.7,0.5-3.5,1.5c-0.8-1.2-2-1.6-3.1-1.6
		c-1.4,0-2.2,0.5-2.9,1.3v-0.4c0-0.4-0.3-0.7-0.7-0.7h-1.9c-0.4,0-0.7,0.3-0.7,0.7v9.9c0,0.4,0.3,0.7,0.7,0.7h1.9
		C207,69.8,207.3,69.5,207.3,69.1 M195.5,62.7c0-2.4-1-4.4-4.8-4.4c-3.4,0-4,2.1-4.3,3.1c0,0.2-0.1,0.4-0.1,0.4
		c0,0.3,0.2,0.5,0.5,0.5h2c0.3,0,0.5-0.2,0.5-0.4c0.1-0.4,0.3-0.9,1.3-0.9c0.9,0,1.7,0.3,1.7,1.6v0.4H191c-1,0-5-0.2-5,3.6
		c0,2.8,2,3.5,3.7,3.5h0.2c1.1,0,2.2-0.5,2.6-1.3v0.4c0,0.4,0.3,0.7,0.7,0.7h1.6c0.4,0,0.7-0.3,0.7-0.7V62.7z M192.5,65.2v0.3
		c0,1.1,0,2-1.8,2h-0.3c-0.6,0-1.4-0.1-1.4-1c0-1.3,1.2-1.3,2.1-1.3H192.5z M183.5,69.8c0.4,0,0.7-0.3,0.7-0.7v-1.5
		c0-0.4-0.3-0.7-0.7-0.7h-1.2c-0.7,0-0.8-0.4-0.8-0.8v-4.7h2c0.4,0,0.7-0.3,0.7-0.7v-1.5c0-0.4-0.3-0.7-0.7-0.7h-2v-2.2
		c0-0.4-0.3-0.7-0.7-0.7H179c-0.4,0-0.7,0.3-0.7,0.7v1.2c0,0.9-0.3,1.1-1.3,1.1c-0.4,0-0.7,0.3-0.7,0.7v1.5c0,0.4,0.3,0.7,0.7,0.7
		h1.3v5.3c0,2,1.1,3.2,3.4,3.2H183.5z M174.6,62.7c0-2.4-1-4.4-4.8-4.4c-3.4,0-4,2.1-4.3,3.1c0,0.2-0.1,0.4-0.1,0.4
		c0,0.3,0.2,0.5,0.5,0.5h2c0.3,0,0.5-0.2,0.5-0.4c0.1-0.4,0.3-0.9,1.3-0.9c0.9,0,1.7,0.3,1.7,1.6v0.4h-1.5c-1,0-5-0.2-5,3.6
		c0,2.8,2,3.5,3.7,3.5h0.2c1.1,0,2.2-0.5,2.6-1.3v0.4c0,0.4,0.3,0.7,0.7,0.7h1.6c0.4,0,0.7-0.3,0.7-0.7V62.7z M171.6,65.2v0.3
		c0,1.1,0,2-1.8,2h-0.3c-0.6,0-1.4-0.1-1.4-1c0-1.3,1.2-1.3,2.1-1.3H171.6z M159.3,69.1c0,0.4,0.3,0.7,0.7,0.7h1.9
		c0.4,0,0.7-0.3,0.7-0.7V54.6c0-0.4-0.3-0.7-0.7-0.7H160c-0.4,0-0.7,0.3-0.7,0.7v4.9c-0.7-0.9-1.5-1.3-3.1-1.3c-2.6,0-4,1.8-4,5.3v1
		c0,3.6,1.5,5.5,4,5.5c1.4,0,2.3-0.3,3.1-1.3V69.1z M159.3,65.2c0,1-0.5,2.1-1.9,2.1s-1.9-1.1-1.9-2.1v-2.1c0-1,0.5-2.1,1.9-2.1
		s1.9,1.1,1.9,2.1V65.2z"/>
</g>
</svg>
