<?xml version="1.0" encoding="UTF-8"?>
<svg id="Layer_1" data-name="Layer 1" xmlns="http://www.w3.org/2000/svg" viewBox="0 0 711.68 190.22">
  <defs>
    <style>
      .cls-1 {
        fill: #0077fd;
      }

      .cls-2 {
        fill: #253746;
      }
    </style>
  </defs>
  <g>
    <path class="cls-2" d="m339.45,69.57v44.45c0,1.13-.91,2.04-2.04,2.04h-4.15c-11.65,0-15.24-4.14-28.59-21.7l-1.16-1.53c-11.92-15.58-12.89-16.85-18.66-16.85h-.06v38.05c0,1.12-.91,2.03-2.03,2.03h-4.31c-1.12,0-2.03-.9-2.04-2.02h0v-44.45c0-1.13.91-2.04,2.04-2.04h4.15c12.21,0,15.75,4.16,28.73,21.77,12.23,16.64,13.51,18.38,19.7,18.38h.06v-38.11c0-1.13.91-2.04,2.04-2.04h4.3c1.12,0,2.03.91,2.03,2.03"/>
    <path class="cls-2" d="m519.17,67.54h-5.69c-3.04,0-4.46,1.65-5.56,2.98l-22.59,26.83-22.52-26.83c-1.18-1.4-2.54-2.98-5.55-2.98h-5.69c-1.13,0-2.04.92-2.04,2.04v44.43c0,1.12.91,2.04,2.04,2.04h4.08c1.13,0,2.04-.92,2.04-2.04v-36.98l23.8,27.98c.39.47.97.74,1.58.74h4.62c.6,0,1.17-.26,1.56-.72l23.8-27.98v36.95c0,1.13.91,2.04,2.04,2.04h4.07c1.13,0,2.04-.92,2.04-2.04v-44.43c0-1.13-.92-2.04-2.04-2.04h-.02"/>
    <path class="cls-2" d="m670.89,107.9h-24.08c-11.06,0-14.8-2.9-14.8-11.48v-26.85c0-1.12-.91-2.03-2.03-2.03h-4.26c-1.12,0-2.03.9-2.04,2.02h0v26.86c0,13.77,6.91,19.63,23.1,19.63h24.08c1.12,0,2.03-.91,2.04-2.03v-4.09c0-1.11-.9-2.02-2.01-2.03"/>
    <path class="cls-2" d="m698.27,67.54h-4.67c-1.01,0-1.82.82-1.81,1.83v44.89c0,1,.81,1.81,1.81,1.81h4.67c1,0,1.82-.81,1.82-1.81v-44.89c0-1-.81-1.82-1.81-1.83h0"/>
    <path class="cls-2" d="m428.1,91.8c0,20.71-13.44,24.95-33.63,24.95s-33.65-4.24-33.65-24.95,13.47-24.89,33.65-24.89,33.63,4.23,33.63,24.89m-8.51,0c0-14.47-8.1-17.02-25.12-17.02s-25.11,2.54-25.11,17.02,8.1,16.99,25.11,16.99,25.12-2.54,25.12-16.99"/>
    <path class="cls-2" d="m238.02,77.09c-3.1-6.12-6.76-10.17-14.58-10.17-8.32,0-11.89,4.9-14.51,10.17l-18.04,36.02c-.5,1.01-.09,2.23.91,2.73.28.14.59.22.91.22h4.38c.77,0,1.48-.43,1.82-1.13l18.11-35.96c1.64-3.27,3.5-4.61,6.41-4.61s4.84,1.33,6.47,4.61l18.12,35.96c.34.69,1.05,1.13,1.82,1.13h4.38c1.12,0,2.04-.91,2.03-2.04,0-.32-.07-.63-.21-.91l-18.03-36.02Z"/>
    <path class="cls-2" d="m588.74,77.09c-3.09-6.12-6.76-10.17-14.57-10.17-8.32,0-11.9,4.89-14.52,10.17l-18.05,36c-.5,1.01-.09,2.23.92,2.74.28.14.59.21.9.22h4.38c.77,0,1.48-.44,1.82-1.13l18.15-35.96c1.64-3.27,3.5-4.6,6.41-4.6s4.84,1.34,6.48,4.61l18.1,35.97c.34.69,1.05,1.13,1.82,1.13h4.38c1.12,0,2.04-.91,2.04-2.03,0-.32-.07-.63-.22-.91l-18.03-36.04Z"/>
    <path class="cls-1" d="m223.5,103.34c-3.73,0-5.5-.56-5.5-3.74s1.77-3.75,5.5-3.75,5.51.56,5.51,3.75-1.79,3.74-5.51,3.74"/>
    <path class="cls-1" d="m574.2,103.34c-3.72,0-5.49-.56-5.49-3.74s1.78-3.75,5.5-3.75,5.49.57,5.49,3.75-1.74,3.75-5.5,3.74"/>
  </g>
  <g>
    <path class="cls-1" d="m102.94,64.36c.35-1.68,2.13-3.24,4.06-3.45,1.93-.2,10.04-.92,10.04-.92,2.05-.22,3.3.96,2.82,3.27l-.48,1.97c-.48,1.47-2.06,2.28-3.71,2.38,0,0-5.84.41-6.88.52-1.58.17-2.68.62-3.3,1.58-.51.79-1.24,2.05-1.24,2.05-.88,1.11-2.94.34-2.75-1.01,0,0,1.1-4.71,1.44-6.4"/>
    <path class="cls-1" d="m71.26,64.36c.34,1.68,1.45,6.4,1.45,6.4.19,1.36-1.87,2.13-2.75,1.01,0,0-.73-1.26-1.24-2.05-.62-.96-1.72-1.42-3.3-1.58-1.03-.11-6.88-.52-6.88-.52-1.65-.1-3.23-.91-3.71-2.38l-.48-1.97c-.48-2.32.77-3.49,2.82-3.27,0,0,8.11.72,10.04.92,1.93.2,3.71,1.76,4.06,3.45"/>
    <path class="cls-1" d="m87.2,21.77c3.62,0,4.9,1.45,5.12,1.75,1.01,1.83,3.69,5.01,10.09,5.01,2.61,0,5.56-.52,9.02-1.59.91-.28,1.77-.42,2.58-.42,3.82,0,6.1,3.36,6.37,3.78.84,1.52,2.23,2.55,3.91,2.97.46.12.93.17,1.39.17,1.05,0,2.08-.28,3.02-.8.04,0,.1-.01.18-.01.37,0,1.18.11,2.46.87.25.15.76.8,1.21,1.38,1.63,2.08,3.49,4.16,6.48,5.68-.46.19-.86.32-1.13.41-1.74.53-3.16,1.8-3.89,3.46-.73,1.67-.7,3.57.09,5.21.26.53,1.43,2.83,3.61,4.99-.4.27-.77.59-1.11.95-1.35,1.44-1.85,3.44-1.49,5.38.16.88,1.17,5.48,5.4,9.55,2.7,2.6,5.56,4.36,8.13,5.54-1.24,1.02-2.89,1.43-3.54,1.51-1.99.12-3.71,1.17-4.78,2.85-1.08,1.69-1.19,3.79-.45,5.66.65,1.64,2.64,4.74,8.66,7.03.78.3,1.58.55,2.4.76-.25.19-.39.29-.39.29h0c-2.26,1.47-3.68,4.18-2.99,6.79.68,2.55,2.55,4.36,5.15,4.58.44.18,1.65.86,2.67,2.97.79,1.63,1.1,3.31,1.14,4.87-.83-.16-1.66-.25-2.5-.25-2.54,0-4.3.78-4.93,1.11-1.87.99-3.35,2.66-3.54,4.76-.19,2.06.44,3.88,2.03,5.18.39.54,1.88,2.96,1.45,8.05-.08.92-.26,1.79-.52,2.61-2.29-2.5-5.07-3.86-7.18-4.3-.41-.09-.83-.13-1.25-.13-1.5,0-2.97.55-4.12,1.55-1.21,1.05-1.95,2.53-2.1,4.1-2.23-1.16-4.19-1.43-5.53-1.43-1.09,0-1.91.17-2.4.32-2,.58-3.76,1.87-4.39,3.85-.61,1.93-.42,3.8.8,5.4.21.5.88,2.31,1.22,5.91.03.29.04.57.05.85-1.12-.44-2.33-.68-3.64-.68-.28,0-.57.01-.85.04-1.36.11-3.86.32-6.07,4.08-1.45-1.2-3.34-2.12-5.78-2.12-.17,0-.35,0-.53.02-4.36.26-6.51,3.32-7.73,6.35-1.09-.73-2.43-1.22-4.11-1.22-1.92,0-3.75.71-5.44,2.1-.82.68-1.58,1.45-2.28,2.27-.7-.82-1.46-1.59-2.28-2.27-1.69-1.39-3.52-2.1-5.44-2.1-1.68,0-3.02.49-4.11,1.22-1.22-3.02-3.37-6.09-7.74-6.35-.18-.01-.35-.02-.52-.02-2.42,0-4.3.91-5.75,2.1-1.18-1.98-3.03-3.8-6.1-4.05-.29-.02-.57-.04-.85-.04-1.31,0-2.52.25-3.63.68,0-.28.02-.56.05-.85.34-3.6,1.01-5.41,1.22-5.91,1.22-1.6,1.41-3.47.8-5.4-.63-1.99-2.39-3.27-4.39-3.86-.5-.14-1.32-.32-2.4-.32-1.35,0-3.3.27-5.53,1.43-.15-1.57-.89-3.04-2.09-4.1-1.15-1.01-2.62-1.56-4.12-1.56-.42,0-.84.04-1.26.13-2.12.44-4.9,1.8-7.19,4.3-.26-.81-.45-1.68-.52-2.6-.42-5.1,1.06-7.51,1.46-8.05,1.58-1.3,2.21-3.12,2.03-5.18-.19-2.11-1.67-3.78-3.54-4.76-.64-.33-2.39-1.11-4.93-1.11-.83,0-1.67.08-2.5.25.04-1.56.35-3.24,1.14-4.87,1.02-2.1,2.23-2.78,2.67-2.97,2.61-.22,4.5-2.01,5.17-4.56.69-2.61-.7-5.31-2.97-6.78,0,0-.16-.11-.44-.32.83-.21,1.63-.47,2.41-.76,6.01-2.29,8.01-5.38,8.66-7.02.74-1.87.64-3.97-.45-5.66-1.08-1.68-2.8-2.74-4.79-2.86-.65-.09-2.29-.5-3.54-1.51,2.57-1.19,5.43-2.94,8.13-5.54,4.23-4.07,5.24-8.67,5.4-9.55.35-1.94-.14-3.94-1.49-5.39-.34-.37-.72-.68-1.12-.95,2.18-2.16,3.35-4.44,3.61-4.98.79-1.64.82-3.54.09-5.21-.73-1.67-2.15-2.93-3.89-3.46-.26-.08-.66-.21-1.13-.41,2.99-1.53,4.85-3.6,6.48-5.68.45-.58.96-1.23,1.21-1.38,1.28-.76,2.09-.87,2.46-.87.08,0,.14,0,.18.01.94.51,1.97.8,3.02.8.46,0,.93-.06,1.4-.17,1.69-.42,3.08-1.45,3.91-2.97.27-.42,2.55-3.78,6.37-3.78.81,0,1.67.14,2.58.42,3.46,1.07,6.41,1.59,9.02,1.59,6.39,0,9.08-3.18,10.09-5.01.22-.3,1.5-1.75,5.12-1.75h.03m-33.19,8.5h0,0M21.8,105.49h0,0m5.08,18.59h0,0m25.23,20h0,0M87.2,15.53h-.03c-8.02,0-10.53,4.88-10.53,4.88,0,0-.65,1.88-4.68,1.88-1.71,0-4.04-.34-7.18-1.31-1.59-.49-3.06-.7-4.42-.7-7.79,0-11.75,6.87-11.75,6.87,0,0-1.13-.75-3.13-.75-1.45,0-3.37.39-5.65,1.75-4.04,2.4-3.54,7.89-14.68,8.54.22,5.31,4.55,8.75,9.47,10.26,0,0-1.27,2.63-3.62,4.3-3.83,2.72-8.03,3.01-8.03,3.01,2.04,5.17,7.65,5.61,9.52,5.61.39,0,.61-.02.61-.02,0,0-.6,3.28-3.59,6.17-5.81,5.59-12.68,6.24-12.68,6.24,0,0,.38,3.97,3.91,7.68,3.29,3.46,7.95,3.85,7.95,3.85,0,0-.73,1.84-5.08,3.5-2.49.95-5.04,1.19-7.02,1.19-2.12,0-3.57-.28-3.57-.28,0,0,.19,4.68,2.84,7.31,2.75,2.73,4.55,3.9,4.55,3.9,0,0-4.33.75-7.05,6.39-4.34,8.99.65,17.98.65,17.98.12-.15.4-2.36,3.25-3.68,1.2-.56,2.24-.72,3.07-.72,1.27,0,2.03.4,2.03.4,0,0-4.02,3.83-3.26,13,.76,9.1,8.25,14.41,8.25,14.41,0,0-.11-2.27,1.52-5.74,1.89-4.04,5.42-4.77,5.42-4.77,0,0-.21,2.67.25,6.1.58,4.33,3.33,6.57,3.33,6.57,0,0,.96-4.69,4.56-7.15,1.6-1.09,2.88-1.3,3.61-1.3.42,0,.66.07.66.07,0,0-1.51,2.32-2.1,8.59-.72,7.65,3.62,13.43,3.62,13.43,0,0,2.13-6.44,6.18-6.44.11,0,.22,0,.33.01,2.46.21,2.34,7.58,5.16,8.23.12.03.24.04.36.04,2.5,0,3.46-6.29,6.86-6.29.05,0,.11,0,.16,0,3.69.22,2.82,10.76,6.51,11.41.12.02.24.03.35.03,2.81,0,3.03-6.3,5.34-6.3.41,0,.89.2,1.46.67,3.9,3.23,6.24,10.33,6.24,10.33h.03s2.33-7.1,6.24-10.33c.57-.47,1.05-.67,1.46-.67,2.31,0,2.53,6.3,5.34,6.3.11,0,.23-.01.35-.03,3.69-.65,2.82-11.19,6.51-11.41.05,0,.11,0,.16,0,3.4,0,4.35,6.29,6.86,6.29.12,0,.23-.01.36-.04,2.82-.65,2.7-8.02,5.16-8.23.11,0,.22-.01.33-.01,4.06,0,6.18,6.44,6.18,6.44,0,0,4.34-5.78,3.62-13.43-.59-6.27-2.1-8.59-2.1-8.59,0,0,.24-.07.66-.07.73,0,2.01.2,3.61,1.3,3.6,2.46,4.56,7.15,4.56,7.15,0,0,2.75-2.24,3.33-6.57.46-3.43.25-6.1.25-6.1,0,0,3.53.73,5.42,4.77,1.63,3.47,1.52,5.74,1.52,5.74,0,0,7.49-5.31,8.24-14.41.77-9.17-3.25-13-3.25-13,0,0,.76-.4,2.03-.4.83,0,1.87.17,3.07.72,2.85,1.32,3.14,3.53,3.25,3.68,0,0,4.99-8.99.65-17.98-2.72-5.64-7.05-6.39-7.05-6.39,0,0,1.8-1.17,4.56-3.9,2.65-2.63,2.84-7.31,2.84-7.31,0,0-1.45.28-3.57.28-1.98,0-4.53-.24-7.02-1.19-4.35-1.66-5.08-3.5-5.08-3.5,0,0,4.66-.39,7.95-3.85,3.53-3.71,3.91-7.68,3.91-7.68,0,0-6.87-.65-12.68-6.24-3-2.88-3.59-6.17-3.59-6.17,0,0,.23.02.61.02,1.86,0,7.48-.44,9.52-5.61,0,0-4.19-.29-8.03-3.01-2.35-1.67-3.62-4.3-3.62-4.3,4.92-1.51,9.26-4.95,9.47-10.26-11.14-.65-10.64-6.13-14.68-8.54-2.28-1.36-4.2-1.75-5.65-1.75-2,0-3.13.75-3.13.75,0,0-3.97-6.87-11.76-6.87-1.36,0-2.83.21-4.42.7-3.15.97-5.47,1.31-7.18,1.31-4.03,0-4.68-1.88-4.68-1.88,0,0-2.51-4.88-10.53-4.88h0Zm74.16,72.67h0,0Z"/>
    <path class="cls-1" d="m141.18,93.53s-1.86-5.35-4.33-4.33c-2.47,1.03-1.36,5.88,1.28,8.88,2.5,2.84,2.27,6.59,2.27,6.59,0,0-2.89-3.71-5.36-2.68-2.48,1.03-.41,8.86-.41,8.86,0,0-4.95-4.33-6.19-1.65-1.24,2.68,3.11,4.61,4.2,9.34.67,2.93.32,5.04.55,6.18,0,0-5.36-3.71-10.18-3.16-5.06.58-6.53,3.71-6.53,3.71,0,0,2.68,1.51,4.19,4.81,1.43,3.12.35,6.93.35,6.93,0,0-3.92-4.94-6.39-3.5-2.48,1.44-1.17,7.41-3.85,7.41s-6.25-1.51-10.18-.82c-10.18,1.79-13.48,10.54-13.48,10.54,0,0,0-.03,0-.06,0,.03,0,.06,0,.06,0,0-3.3-8.75-13.48-10.54-3.92-.69-7.5.82-10.18.82s-1.37-5.97-3.85-7.41c-2.47-1.44-6.39,3.5-6.39,3.5,0,0-1.09-3.82.34-6.93,1.51-3.3,4.19-4.81,4.19-4.81,0,0-1.47-3.13-6.53-3.71-4.81-.55-10.18,3.16-10.18,3.16.23-1.14-.12-3.25.55-6.18,1.08-4.73,5.43-6.66,4.19-9.34-1.24-2.68-6.19,1.65-6.19,1.65,0,0,2.07-7.83-.41-8.86-2.47-1.03-5.36,2.68-5.36,2.68,0,0,.41-3.3,2.27-6.59,1.86-3.3,2.68-7.62.21-8.65-2.47-1.03-4.33,4.32-4.33,4.32,0,0-1.65-6.8,1.65-14.21,3.3-7.41,7.22-10.09,6.81-13.59-.41-3.5-4.74,1.03-4.74,1.03,0,0-.82-3.5,2.75-7.62,3.82-4.4,8.18-3.43,9.35-8.24.66-2.72-3.64-2.68-3.64-2.68,0,0,1.58-3.5,8.87-6.11,5.74-2.06,4.33-4.6,2.47-6.25-1.86-1.65-.62-2.47,3.51-1.44,4.13,1.03,8.27-1.44,9.28-1.24.69.14-3.99,3.3-9.35,10.85-1.96,2.76-5.08,7.89-7.88,13.89.13-.18.24-.32.33-.43,0,0-4.51,9.65-5.36,16.06-1.1,8.24,1.09,18.7,4.54,22.79,2.15,2.55,7.19,2.09,9.6,5.54l12.68-25.32c2.57-5.19,6.08-10,14.25-10,7.68,0,11.28,4,14.32,10l12.77,25.49c2.35-3.65,7.54-3.12,9.72-5.71,3.45-4.09,5.64-14.55,4.54-22.79-.38-2.81-1.45-6.24-2.54-9.2-3.22-8.64-7.94-16.61-10.58-20.33-5.36-7.55-10.04-10.71-9.35-10.85,1.01-.2,5.16,2.26,9.28,1.24,4.13-1.03,5.36-.21,3.51,1.44-1.86,1.65-3.27,4.19,2.48,6.25,7.29,2.61,8.87,6.11,8.87,6.11,0,0-4.31-.04-3.64,2.68,1.17,4.81,5.53,3.83,9.35,8.24,3.58,4.12,2.75,7.62,2.75,7.62,0,0-4.33-4.53-4.74-1.03-.41,3.5,2.43,5.95,5.73,13.37,3.3,7.41,1.65,14.21,1.65,14.21m-54.11-19.41c-2.86,0-4.68,1.31-6.29,4.52l-16.84,33.44c.07.23.14.47.22.7.69,2.2,1.79,4.53,2.75,7.14.96,2.61,3.3,5.73,4.54,6.69,5.17,4.01,10.96,3.98,16.14,3.98s10.24.03,15.4-3.98c1.24-.96,3.57-4.08,4.54-6.69.96-2.61,2.06-4.94,2.75-7.14.04-.15.09-.3.14-.44l-16.97-33.7c-1.61-3.21-3.45-4.52-6.36-4.52m11.03,20.31c2.85.13,3.49,5.04.26,6.33-6.23,2.49-9.44,2.58-9.31,5.68.13,3.1,1.42,3.87,4.66,4.91,3.23,1.03,8.4,2.88,9.44,3.1,1.81.39,2.2,1.81.9,3.87-1.29,2.07-8.02-.78-11.25-1.81-2.34-.75-4.53-1.81-5.7-1.81s-3.35,1.06-5.69,1.81c-3.23,1.03-9.96,3.88-11.25,1.81-1.29-2.07-.9-3.49.9-3.87,1.04-.22,6.21-2.07,9.44-3.1,3.23-1.03,4.53-1.81,4.65-4.91.13-3.1-3.08-3.19-9.31-5.68-3.23-1.29-2.58-6.2.26-6.33,2.2-.1,4.66,0,10.99,0h.01c6.34,0,8.79-.1,10.99,0"/>
  </g>
</svg>