<svg xmlns="http://www.w3.org/2000/svg" width="98.07" height="106.099" viewBox="0 0 98.07 106.099">
  <g id="logo" transform="translate(0 0)">
    <path id="path14" d="M597.053,464.731h-2.829V451.3h2.829ZM594.4,448.622a1.77,1.77,0,1,1,1.262.53,1.727,1.727,0,0,1-1.262-.53" transform="translate(-593.871 -358.835)" fill="#4b1357"/>
    <path id="path16" d="M613.9,450.3a3.911,3.911,0,0,0-2.134.53,1.773,1.773,0,0,0-.834,1.6,1.862,1.862,0,0,0,.834,1.64,12.534,12.534,0,0,0,3.548,1.225,9.755,9.755,0,0,1,4.09,1.844,4.362,4.362,0,0,1,1.376,3.5,4.635,4.635,0,0,1-1.742,3.75,6.94,6.94,0,0,1-4.57,1.439,10.734,10.734,0,0,1-7.347-2.854l1.869-2.247a8.411,8.411,0,0,0,5.555,2.323,3.787,3.787,0,0,0,2.285-.618,1.935,1.935,0,0,0,.846-1.641,1.846,1.846,0,0,0-.795-1.591,8.388,8.388,0,0,0-2.74-1.035,24.308,24.308,0,0,1-2.954-.859,6.619,6.619,0,0,1-1.793-1.023,4.267,4.267,0,0,1-1.566-3.635,4.429,4.429,0,0,1,1.78-3.775,7.174,7.174,0,0,1,4.407-1.326,10.546,10.546,0,0,1,3.358.555,8.792,8.792,0,0,1,2.879,1.566l-1.59,2.247a6.042,6.042,0,0,0-2.121-1.161,8.175,8.175,0,0,0-2.639-.455" transform="translate(-599.87 -359.734)" fill="#4b1357"/>
    <path id="path18" d="M640.669,465.986V448.337h2.979v7.65h8.762v-7.65h2.979v17.649H652.41v-7.222h-8.762v7.222h-2.979" transform="translate(-615.066 -360.09)" fill="#4b1357"/>
    <path id="path20" d="M686.474,459.219l-3.207-7.272-3.207,7.272Zm-7.626,2.752-1.767,4.015H673.9l7.777-17.649h3.181l7.777,17.649h-3.182l-1.767-4.015h-8.838" transform="translate(-630.117 -360.09)" fill="#4b1357"/>
    <path id="path22" d="M724.593,456.568a3.149,3.149,0,0,0,.909-2.513,2.691,2.691,0,0,0-.933-2.373,6.221,6.221,0,0,0-3.333-.644h-3.788v6.313h3.712a5.461,5.461,0,0,0,3.434-.783Zm3.964-2.5q0,4.367-3.813,5.5l4.621,6.414h-3.787l-4.217-5.933h-3.914v5.933h-2.979V448.337h6.565q4.04,0,5.782,1.363a5.208,5.208,0,0,1,1.742,4.369" transform="translate(-648.491 -360.09)" fill="#4b1357"/>
    <path id="path24" d="M762.312,448.337v2.8h-9.418v4.671h8.46v2.651h-8.46v4.721h9.721v2.8h-12.7V448.337h12.4" transform="translate(-664.545 -360.09)" fill="#4b1357"/>
    <path id="path26" d="M637.842,397.166l.023.022-.051-.051.028.029" transform="translate(-613.773 -336.901)" fill="#231f20"/>
    <path id="path28" d="M729.112,305.9l-.027-.026.048.048-.021-.022" transform="translate(-655.111 -295.565)" fill="#231f20"/>
    <g id="Group_769" data-name="Group 769" transform="translate(13.736)">
      <path id="path30" d="M625.47,369.478c.555-.619.589-1.956.107-3.319a2.7,2.7,0,0,1,.148-2.409l.161-.23a1.6,1.6,0,0,1,1.972-.515,2.713,2.713,0,0,0,3.357-1.119,5.04,5.04,0,0,0-.235-5.394c-1.473-2.117-3.885-2.215-5.132-.514a4.565,4.565,0,0,0-.6,3.827,3.248,3.248,0,0,1-.3,2.558l-.157.233a1.255,1.255,0,0,1-1.684.471,1.615,1.615,0,0,0-1.526-.058,35.092,35.092,0,0,0,2.782,6.755,1.052,1.052,0,0,0,1.1-.286" transform="translate(-620.161 -317.723)" fill="#f5413f"/>
      <path id="path32" d="M621.648,359.065c1.107-1.317,1.043-4.191-.155-5.9a2.088,2.088,0,0,0-2.428-1.081.877.877,0,0,1-.086.024,35.412,35.412,0,0,0,.879,7.486,1.544,1.544,0,0,0,1.79-.533" transform="translate(-618.979 -316.45)" fill="#f5413f"/>
      <path id="path44" d="M644.213,352.681a4.727,4.727,0,0,0,.241-6.815,4.126,4.126,0,0,0-4.036-1.233,2.664,2.664,0,0,1-2.677-.864l-.26-.294a3.306,3.306,0,0,1-.707-2.922,4.69,4.69,0,0,0-.848-4.078c-1.484-1.706-3.877-1.335-5.237.7a5.01,5.01,0,0,0-.223,5.237,3.027,3.027,0,0,0,3.472,1.437,2.412,2.412,0,0,1,2.483.84l.257.295a3.57,3.57,0,0,1,.787,2.956,4.9,4.9,0,0,0,1.52,4.506,3.987,3.987,0,0,0,5.228.239" transform="translate(-623.894 -308.936)" fill="#f5413f"/>
      <path id="path52" d="M647.754,331.831a4.118,4.118,0,0,0,5.391-.1,4.863,4.863,0,0,0,1.607-4.671,3.329,3.329,0,0,1,.933-3.021l.3-.3a3.331,3.331,0,0,1,3.021-.932,4.864,4.864,0,0,0,4.672-1.607,4.12,4.12,0,0,0,.1-5.392,4.657,4.657,0,0,0-6.645-.133,4.305,4.305,0,0,0-1.351,4,3.248,3.248,0,0,1-.962,2.9l-.3.3a3.25,3.25,0,0,1-2.9.962,4.3,4.3,0,0,0-4,1.351,4.658,4.658,0,0,0,.133,6.644" transform="translate(-631.351 -299.404)" fill="#f5413f"/>
      <path id="path64" d="M695.029,291.178a1.254,1.254,0,0,1-.47,1.685l-.233.158a3.244,3.244,0,0,1-2.558.3,4.557,4.557,0,0,0-3.826.6c-1.7,1.246-1.6,3.661.514,5.133a5.04,5.04,0,0,0,5.395.235,2.719,2.719,0,0,0,1.119-3.358,1.6,1.6,0,0,1,.514-1.973l.23-.161a2.7,2.7,0,0,1,2.41-.148c1.362.482,2.7.448,3.318-.108a1.054,1.054,0,0,0,.284-1.1,35.145,35.145,0,0,0-6.752-2.784,1.612,1.612,0,0,0,.055,1.53" transform="translate(-649.677 -288.217)" fill="#f5413f"/>
      <path id="path66" d="M685.132,289.554c1.706,1.2,4.579,1.262,5.9.156a1.544,1.544,0,0,0,.532-1.8,35.437,35.437,0,0,0-7.484-.881c-.009.031-.013.061-.025.092a2.09,2.09,0,0,0,1.081,2.429" transform="translate(-648.403 -287.033)" fill="#f5413f"/>
      <path id="path78" d="M672.518,304.844a3.3,3.3,0,0,1,2.922.708l.294.259a2.664,2.664,0,0,1,.864,2.677,4.128,4.128,0,0,0,1.233,4.038,4.726,4.726,0,0,0,6.814-.242,3.988,3.988,0,0,0-.239-5.228,4.9,4.9,0,0,0-4.506-1.521,3.57,3.57,0,0,1-2.956-.788l-.294-.256a2.413,2.413,0,0,1-.841-2.484,3.026,3.026,0,0,0-1.438-3.473,5.013,5.013,0,0,0-5.236.223c-2.033,1.36-2.4,3.755-.7,5.238a4.685,4.685,0,0,0,4.079.849" transform="translate(-640.89 -291.954)" fill="#f5413f"/>
    </g>
    <g id="Group_770" data-name="Group 770" transform="translate(32.232 18.505)">
      <path id="path38" d="M679.454,385.055a3.307,3.307,0,0,1-2.921-.708l-.294-.26a2.664,2.664,0,0,1-.865-2.677,4.128,4.128,0,0,0-1.233-4.038,4.725,4.725,0,0,0-6.814.241,3.987,3.987,0,0,0,.239,5.229,4.9,4.9,0,0,0,4.506,1.521,3.569,3.569,0,0,1,2.956.787l.294.257a2.417,2.417,0,0,1,.84,2.484,3.029,3.029,0,0,0,1.438,3.472,5.007,5.007,0,0,0,5.237-.223c2.032-1.36,2.4-3.755.7-5.238a4.693,4.693,0,0,0-4.079-.849" transform="translate(-658.98 -345.851)" fill="#990048"/>
      <path id="path50" d="M659.541,403.406a1.263,1.263,0,0,1,.465-1.693l.233-.158a3.276,3.276,0,0,1,2.571-.294,4.431,4.431,0,0,0,4.1-.834,2.921,2.921,0,0,0-.079-4.287,4.977,4.977,0,0,0-6.419-.617,2.687,2.687,0,0,0-.808,3.14,1.586,1.586,0,0,1-.519,1.962l-.23.161a2.683,2.683,0,0,1-2.4.153,3.917,3.917,0,0,0-3.154-.03,1.06,1.06,0,0,0-.473,1.228,35.064,35.064,0,0,0,6.761,2.79,1.607,1.607,0,0,0-.049-1.521" transform="translate(-652.787 -354.266)" fill="#990048"/>
      <path id="path62" d="M698.222,356.412a4.86,4.86,0,0,0-1.258,4.361,3.309,3.309,0,0,1-.936,3.006l-.3.3a3.312,3.312,0,0,1-3.006.935,4.861,4.861,0,0,0-4.361,1.258,4.106,4.106,0,0,0,.3,6.391,4.739,4.739,0,0,0,5.577-.221,4.355,4.355,0,0,0,1.7-4.281,3.271,3.271,0,0,1,.959-2.916l.3-.3a3.272,3.272,0,0,1,2.915-.959,4.354,4.354,0,0,0,4.281-1.7,4.737,4.737,0,0,0,.221-5.576,4.107,4.107,0,0,0-6.392-.3" transform="translate(-668.271 -336.335)" fill="#990048"/>
      <path id="path72" d="M709.578,335.4a4.727,4.727,0,0,0-.241,6.815,4.125,4.125,0,0,0,4.037,1.233,2.665,2.665,0,0,1,2.677.864l.259.294a3.31,3.31,0,0,1,.708,2.921,4.685,4.685,0,0,0,.848,4.078c1.481,1.7,3.878,1.337,5.237-.7a5.007,5.007,0,0,0,.223-5.237,3.026,3.026,0,0,0-3.472-1.437,2.414,2.414,0,0,1-2.483-.84l-.257-.294a3.57,3.57,0,0,1-.788-2.956,4.9,4.9,0,0,0-1.52-4.506,3.986,3.986,0,0,0-5.228-.239" transform="translate(-677.796 -327.053)" fill="#990048"/>
      <path id="path84" d="M732.869,321.373a3.916,3.916,0,0,0,.03,3.154,2.682,2.682,0,0,1-.152,2.4c-.054.076-.107.153-.162.229a1.583,1.583,0,0,1-1.961.52,2.685,2.685,0,0,0-3.139.808,4.976,4.976,0,0,0,.616,6.42,2.921,2.921,0,0,0,4.286.078,4.433,4.433,0,0,0,.835-4.1,3.278,3.278,0,0,1,.293-2.572l.157-.233a1.262,1.262,0,0,1,1.693-.466,1.606,1.606,0,0,0,1.517.051,35.158,35.158,0,0,0-2.788-6.764,1.062,1.062,0,0,0-1.225.474" transform="translate(-686.209 -320.858)" fill="#990048"/>
    </g>
    <g id="Group_771" data-name="Group 771" transform="translate(13.819 0.083)">
      <path id="path34" d="M622.37,333.8a5.774,5.774,0,0,0,1.243-4.135,3.863,3.863,0,0,1,.833-2.687l.227-.283a2.325,2.325,0,0,1,2.15-.994,3.883,3.883,0,0,0,3.588-1.75c1.214-1.574,1.449-3.705.651-4.9-1.056-1.559-3.147-1.123-4.655.583a5.49,5.49,0,0,0-1.443,3.54,4.274,4.274,0,0,1-.947,2.571l-.224.28a2.112,2.112,0,0,1-1.895.987,2.054,2.054,0,0,0-1.74.574,35.439,35.439,0,0,0-1.027,6.393c.8,1.053,2.174,1.042,3.239-.181" transform="translate(-619.131 -301.181)" fill="#fe5e47"/>
      <path id="path54" d="M646.977,315.76c2.123-1.745,2.386-4.666.8-6.121a3.55,3.55,0,0,0-3.649-.6,2.268,2.268,0,0,1-2.355-.34l-.2-.194a1.826,1.826,0,0,1-.25-2.107c.5-1.124.435-2.169-.165-2.661-1.005-.795-2.883.1-4.357,1.713-1.133,1.247-1.734,2.691-1.248,3.581.422.765,1.547.892,2.776.355a1.843,1.843,0,0,1,2.118.243l.195.2a2.293,2.293,0,0,1,.335,2.367,3.477,3.477,0,0,0,.882,3.9,4.065,4.065,0,0,0,5.119-.331" transform="translate(-626.491 -294.546)" fill="#fe5e47"/>
      <path id="path56" d="M625.334,319.9a.862.862,0,0,0-.285-.309,35.034,35.034,0,0,0-2.881,6.509,3.331,3.331,0,0,0,1.655-1.081c1.5-1.62,2.084-4.147,1.511-5.118" transform="translate(-620.506 -301.862)" fill="#fe5e47"/>
      <path id="path68" d="M658.968,289.957a2.113,2.113,0,0,1-.987,1.9l-.279.224a4.253,4.253,0,0,1-2.572.947,5.486,5.486,0,0,0-3.541,1.444c-1.705,1.508-2.142,3.6-.582,4.656,1.194.8,3.324.562,4.9-.65a3.879,3.879,0,0,0,1.75-3.589,2.33,2.33,0,0,1,.994-2.151l.283-.228a3.867,3.867,0,0,1,2.688-.833,5.774,5.774,0,0,0,4.135-1.242c1.223-1.069,1.234-2.441.175-3.245a35.4,35.4,0,0,0-6.382,1.024,2.063,2.063,0,0,0-.582,1.748" transform="translate(-633.132 -287.185)" fill="#fe5e47"/>
      <path id="path86" d="M651.852,293.389c.974.575,3.5-.015,5.12-1.51a3.326,3.326,0,0,0,1.083-1.663,35.057,35.057,0,0,0-6.516,2.884.879.879,0,0,0,.313.289" transform="translate(-633.809 -288.558)" fill="#fe5e47"/>
    </g>
    <g id="Group_772" data-name="Group 772" transform="translate(41.075 27.35)">
      <path id="path46" d="M675.48,410.686c-1.706-1.2-4.58-1.263-5.9-.155a1.543,1.543,0,0,0-.532,1.8,35.407,35.407,0,0,0,7.484.881c.009-.031.013-.061.025-.092a2.089,2.089,0,0,0-1.081-2.43" transform="translate(-668.951 -369.96)" fill="#6a1858"/>
      <path id="path48" d="M694.241,402.891a2.124,2.124,0,0,1,.985-1.9l.28-.224a4.294,4.294,0,0,1,2.584-.947,5.587,5.587,0,0,0,3.822-1.719c1.25-1.264,1.651-2.874.8-3.927-1.1-1.378-3.888-1.2-5.746.477a3.721,3.721,0,0,0-1.41,3.319,2.318,2.318,0,0,1-1,2.14l-.283.228a3.853,3.853,0,0,1-2.675.834,5.9,5.9,0,0,0-3.858,1.01c-1.511,1.105-1.605,2.6-.466,3.476a35.41,35.41,0,0,0,6.388-1.025,2.06,2.06,0,0,0,.578-1.739" transform="translate(-676.9 -362.49)" fill="#6a1858"/>
      <path id="path58" d="M709.753,406.915c-.972-.573-3.5.013-5.119,1.51a3.324,3.324,0,0,0-1.083,1.663,35.009,35.009,0,0,0,6.516-2.884.874.874,0,0,0-.313-.289" transform="translate(-684.622 -368.581)" fill="#6a1858"/>
      <path id="path60" d="M708.176,376.956a4.068,4.068,0,0,0-.33,5.12,3.482,3.482,0,0,0,3.9.883,2.292,2.292,0,0,1,2.368.335l.2.2a1.842,1.842,0,0,1,.245,2.119c-.536,1.231-.41,2.354.356,2.777.891.487,2.336-.115,3.583-1.247,1.616-1.474,2.509-3.353,1.712-4.359-.491-.6-1.536-.662-2.662-.166a1.828,1.828,0,0,1-2.108-.25l-.194-.2a2.271,2.271,0,0,1-.34-2.355,3.553,3.553,0,0,0-.6-3.65c-1.456-1.59-4.378-1.328-6.123.8" transform="translate(-686.223 -354.287)" fill="#6a1858"/>
      <path id="path80" d="M742.488,337.657c-1.106,1.317-1.043,4.191.155,5.9a2.09,2.09,0,0,0,2.428,1.081c.029-.011.058-.015.086-.024a35.444,35.444,0,0,0-.879-7.486,1.546,1.546,0,0,0-1.791.532" transform="translate(-701.9 -337.025)" fill="#6a1858"/>
      <path id="path82" d="M734.137,355.813a5.889,5.889,0,0,0-1.01,3.858,3.852,3.852,0,0,1-.834,2.674c-.075.094-.152.188-.228.282a2.317,2.317,0,0,1-2.14,1,3.718,3.718,0,0,0-3.318,1.41c-1.678,1.858-1.855,4.643-.478,5.745,1.053.853,2.664.454,3.925-.8a5.585,5.585,0,0,0,1.719-3.82,4.286,4.286,0,0,1,.947-2.583l.224-.28a2.117,2.117,0,0,1,1.9-.985,2.056,2.056,0,0,0,1.731-.572,35.421,35.421,0,0,0,1.029-6.4c-.874-1.131-2.367-1.035-3.469.473" transform="translate(-694.431 -344.974)" fill="#6a1858"/>
      <path id="path88" d="M738.866,377.821a.883.883,0,0,0,.284.31,35,35,0,0,0,2.882-6.509,3.338,3.338,0,0,0-1.656,1.081c-1.5,1.62-2.085,4.145-1.511,5.119" transform="translate(-700.518 -352.694)" fill="#6a1858"/>
    </g>
    <g id="Group_773" data-name="Group 773" transform="translate(20.922 7.194)">
      <path id="path36" d="M640.067,395.387c.569-.661.206-2.28-1.022-3.671-1.6-1.833-3.792-2.4-4.447-1.525-.4.505-.2,1.333.326,2.2.431.482.876.957,1.339,1.421l.051.051c.462.461.935.9,1.415,1.334.949.579,1.858.759,2.338.194" transform="translate(-633.144 -340.766)" fill="#c90649"/>
      <path id="path40" d="M642.729,383.022a3.316,3.316,0,0,1-2.557-1.05l-.276-.276a3.318,3.318,0,0,1-1.049-2.557,5.117,5.117,0,0,0-1.413-3.821c-1.715-1.861-4.118-1.943-4.995-.31-.682,1.251-.254,3.116.889,4.546a4.364,4.364,0,0,0,3.393,1.862,3.336,3.336,0,0,1,2.369,1.09l.272.272a3.347,3.347,0,0,1,1.09,2.369,4.365,4.365,0,0,0,1.862,3.393c1.43,1.144,3.3,1.572,4.546.89,1.632-.878,1.551-3.281-.311-5a5.117,5.117,0,0,0-3.82-1.412" transform="translate(-632.113 -333.548)" fill="#c90649"/>
      <path id="path42" d="M655.486,368.173a2.867,2.867,0,0,1,.726-2.849l.285-.283a3.126,3.126,0,0,1,2.976-.775,4.563,4.563,0,0,0,4.657-1.5,4.7,4.7,0,0,0-6.958-6.285,4.569,4.569,0,0,0-1.144,4.349,3.1,3.1,0,0,1-.779,2.96l-.283.285a2.849,2.849,0,0,1-2.834.731,3.765,3.765,0,0,0-3.845.916c-1.543,1.665-1.114,4.428.883,6.093a4.178,4.178,0,0,0,5.091.442,3.708,3.708,0,0,0,1.226-4.086" transform="translate(-639.016 -325.067)" fill="#c90649"/>
      <path id="path70" d="M722.151,302.669c-.873.653-.307,2.848,1.526,4.447,1.39,1.226,3.009,1.59,3.67,1.021.565-.479.386-1.387-.192-2.335-.434-.485-.88-.962-1.346-1.428l-.048-.048q-.691-.689-1.411-1.331c-.865-.527-1.693-.724-2.2-.327" transform="translate(-672.71 -301.214)" fill="#c90649"/>
      <path id="path74" d="M713.38,304.792a4.363,4.363,0,0,0-1.862-3.392c-1.431-1.145-3.294-1.571-4.546-.891-1.632.878-1.551,3.279.311,5a5.113,5.113,0,0,0,3.821,1.412,3.314,3.314,0,0,1,2.556,1.05l.276.276a3.318,3.318,0,0,1,1.049,2.557,5.119,5.119,0,0,0,1.411,3.821c1.717,1.863,4.12,1.944,5,.311.681-1.252.254-3.117-.89-4.546a4.366,4.366,0,0,0-3.393-1.862,3.344,3.344,0,0,1-2.369-1.09l-.272-.272a3.348,3.348,0,0,1-1.09-2.369" transform="translate(-665.493 -300.183)" fill="#c90649"/>
      <path id="path76" d="M697.689,316.358a3.765,3.765,0,0,0-.916,3.846,2.849,2.849,0,0,1-.73,2.834l-.284.282a3.112,3.112,0,0,1-2.961.78,4.567,4.567,0,0,0-4.349,1.144,4.7,4.7,0,0,0,6.284,6.958,4.563,4.563,0,0,0,1.5-4.657,3.125,3.125,0,0,1,.775-2.976l.282-.286a2.868,2.868,0,0,1,2.849-.726,3.707,3.707,0,0,0,4.086-1.226,4.179,4.179,0,0,0-.441-5.091c-1.667-2-4.426-2.426-6.093-.883" transform="translate(-657.012 -307.087)" fill="#c90649"/>
      <path id="path90" d="M684.075,345.482a4.651,4.651,0,0,0-4.726-1.582,3.293,3.293,0,0,1-3.1-.877l-.308-.308a3.291,3.291,0,0,1-.877-3.1,4.654,4.654,0,0,0-1.582-4.726,4.73,4.73,0,0,0-6.324,7.009,4.656,4.656,0,0,0,4.417,1.218,3.27,3.27,0,0,1,3.087.881l.307.307a3.271,3.271,0,0,1,.881,3.086,4.655,4.655,0,0,0,1.219,4.417,4.73,4.73,0,0,0,7.008-6.325" transform="translate(-647.37 -315.435)" fill="#c90649"/>
    </g>
  </g>
</svg>
