<?xml version="1.0" encoding="utf-8"?>
<!-- Generator: Adobe Illustrator 25.3.1, SVG Export Plug-In . SVG Version: 6.00 Build 0)  -->
<svg version="1.1" id="Ebene_1" xmlns="http://www.w3.org/2000/svg" xmlns:xlink="http://www.w3.org/1999/xlink" x="0px" y="0px"
     viewBox="0 0 202.4 65.8" style="enable-background:new 0 0 202.4 65.8;" xml:space="preserve">
<style type="text/css">
	.st0{fill:#000000;}
	.st1{fill:#000000;stroke:#1D1D1B;stroke-width:2.3376;stroke-linejoin:round;stroke-miterlimit:10;}
</style>
    <g>
	<path class="st0" d="M75.64,32.32C75.64,32.32,75.64,32.31,75.64,32.32L56.99,0H19L0,32.9l19,32.9h37.99l18.66-32.31c0,0,0,0,0,0
		l0.34-0.59L75.64,32.32z M18.5,60.25L3.39,34.07H18.5V60.25z M18.5,31.72H3.39L18.5,5.56V31.72z M54.27,2.35L46.7,15.42L24.05,2.35
		H54.27z M20.85,3.21l24.67,14.24l-8.27,14.27h-16.4V3.21z M39.96,31.72l7.59-13.1l22.68,13.1H39.96z M70.26,34.07l-22.7,13.11
		l-7.6-13.11H70.26z M20.85,34.07h16.4l8.28,14.28L20.85,62.6V34.07z M46.7,50.38l7.58,13.07H24.05L46.7,50.38z M56.31,62.28
		l-7.58-13.08l22.69-13.1L56.31,62.28z M48.73,16.59l7.58-13.08L71.42,29.7L48.73,16.59z"/>
        <path class="st1" d="M23.66,1.35"/>
        <path class="st1" d="M60.09,64.53"/>
        <g>
		<path class="st0" d="M97.52,16.31L92.57,2.96v13.35h-2.03V0.1h2.96l4.92,13.32l4.95-13.32h2.87v16.21h-2.01V2.96l-4.97,13.35
			H97.52z"/>
            <path class="st0" d="M114.4,16.56c-3.23,0-5.49-2.48-5.49-6.14c0-3.66,2.26-6.14,5.49-6.14s5.49,2.48,5.49,6.14
			C119.89,14.07,117.63,16.56,114.4,16.56z M114.4,14.82c2.08,0,3.43-1.72,3.43-4.4c0-2.71-1.35-4.43-3.43-4.43
			c-2.08,0-3.43,1.72-3.43,4.43C110.97,13.1,112.32,14.82,114.4,14.82z"/>
            <path class="st0" d="M124.49,14.59v1.72h-2.03V0.1h2.03v6.12c0.7-1.15,2.01-1.94,3.66-1.94c3.27,0,5.15,2.78,5.15,6.14
			c0,3.34-1.87,6.14-5.15,6.14C126.5,16.56,125.19,15.77,124.49,14.59z M124.45,10.84c0,2.71,1.67,3.93,3.34,3.93
			c2.21,0,3.46-1.83,3.46-4.36c0-2.55-1.24-4.36-3.46-4.36c-1.67,0-3.34,1.2-3.34,3.95V10.84z"/>
            <path class="st0" d="M135.78,0.1h2.21v2.35h-2.21V0.1z M137.9,16.31h-2.03V4.5h2.03V16.31z"/>
            <path class="st0" d="M143.32,16.31h-2.03V0.1h2.03V16.31z"/>
            <path class="st0" d="M146.61,0.1h2.21v2.35h-2.21V0.1z M148.74,16.31h-2.03V4.5h2.03V16.31z"/>
            <path class="st0" d="M152.44,6.24h-1.83V4.5h1.83V1.04h2.01V4.5h2.69v1.74h-2.69v6.93c0,1.24,0.61,1.47,1.65,1.47
			c0.47,0,0.81-0.02,1.29-0.14v1.74c-0.52,0.11-1.11,0.18-1.78,0.18c-2.01,0-3.16-0.68-3.16-2.94V6.24z"/>
            <path class="st0" d="M160.48,20.51c-0.5,0-0.75-0.02-1.11-0.09v-1.76c0.38,0.09,0.63,0.11,0.97,0.11c0.88,0,1.35-0.32,1.83-1.49
			l0.56-1.4L158.35,4.5h2.14l3.32,9.03l3.27-9.03h2.12l-5.08,13.1C163.46,19.38,162.53,20.51,160.48,20.51z"/>
            <path class="st0" d="M90.54,24.87h5.15c4.92,0,8.04,3.16,8.04,8.11s-3.12,8.11-8.04,8.11h-5.15V24.87z M95.69,39.21
			c3.68,0,5.92-2.46,5.92-6.23c0-3.79-2.24-6.23-5.94-6.23h-3v12.47H95.69z"/>
            <path class="st0" d="M105.35,37.9c0-2.35,1.83-3.32,4.47-3.86l2.87-0.59v-0.5c0-1.35-0.75-2.12-2.33-2.12
			c-1.49,0-2.37,0.7-2.73,2.01l-1.92-0.5c0.56-1.92,2.3-3.3,4.72-3.3c2.64,0,4.27,1.29,4.27,3.82v5.76c0,0.77,0.47,1.02,1.26,0.84
			v1.63c-1.81,0.23-2.85-0.2-3.09-1.33c-0.72,0.93-2.03,1.54-3.64,1.54C107.09,41.28,105.35,40.02,105.35,37.9z M112.69,35.03
			l-2.3,0.5c-1.81,0.36-3.03,0.86-3.03,2.28c0,1.15,0.84,1.83,2.12,1.83c1.74,0,3.21-1.06,3.21-2.58V35.03z"/>
            <path class="st0" d="M118.46,31.01h-1.83v-1.74h1.83v-3.46h2.01v3.46h2.69v1.74h-2.69v6.93c0,1.24,0.61,1.47,1.65,1.47
			c0.47,0,0.81-0.02,1.29-0.13v1.74c-0.52,0.11-1.11,0.18-1.78,0.18c-2.01,0-3.16-0.68-3.16-2.94V31.01z"/>
            <path class="st0" d="M124.9,37.9c0-2.35,1.83-3.32,4.47-3.86l2.87-0.59v-0.5c0-1.35-0.75-2.12-2.33-2.12
			c-1.49,0-2.37,0.7-2.73,2.01l-1.92-0.5c0.56-1.92,2.3-3.3,4.72-3.3c2.64,0,4.27,1.29,4.27,3.82v5.76c0,0.77,0.47,1.02,1.26,0.84
			v1.63c-1.81,0.23-2.85-0.2-3.09-1.33c-0.72,0.93-2.03,1.54-3.64,1.54C126.64,41.28,124.9,40.02,124.9,37.9z M132.24,35.03
			l-2.3,0.5c-1.81,0.36-3.03,0.86-3.03,2.28c0,1.15,0.84,1.83,2.12,1.83c1.74,0,3.21-1.06,3.21-2.58V35.03z"/>
            <path class="st0" d="M142.55,36.38c1.02,1.94,2.85,3.07,4.95,3.07c2.1,0,3.73-1.04,3.73-2.89c0-1.96-1.87-2.3-4.34-2.89
			c-2.55-0.61-5.08-1.31-5.08-4.36c0-2.85,2.46-4.7,5.53-4.7c2.82,0,4.86,1.35,5.83,3.18l-1.65,1.31c-0.84-1.56-2.12-2.62-4.22-2.62
			c-1.96,0-3.39,1.08-3.39,2.64c0,1.72,1.51,2.08,3.79,2.62c2.69,0.63,5.65,1.2,5.65,4.63c0,3.03-2.69,4.95-5.89,4.95
			c-2.8,0-5.49-1.4-6.59-3.59L142.55,36.38z"/>
            <path class="st0" d="M157.74,39.36v5.78h-2.03V29.27h2.03v1.72c0.7-1.15,2.01-1.94,3.66-1.94c3.27,0,5.15,2.78,5.15,6.14
			c0,3.34-1.87,6.14-5.15,6.14C159.75,41.33,158.44,40.54,157.74,39.36z M157.7,35.62c0,2.71,1.67,3.93,3.34,3.93
			c2.21,0,3.46-1.83,3.46-4.36c0-2.55-1.24-4.36-3.46-4.36c-1.67,0-3.34,1.2-3.34,3.95V35.62z"/>
            <path class="st0" d="M168.2,37.9c0-2.35,1.83-3.32,4.47-3.86l2.87-0.59v-0.5c0-1.35-0.75-2.12-2.33-2.12
			c-1.49,0-2.37,0.7-2.73,2.01l-1.92-0.5c0.56-1.92,2.3-3.3,4.72-3.3c2.64,0,4.27,1.29,4.27,3.82v5.76c0,0.77,0.47,1.02,1.26,0.84
			v1.63c-1.81,0.23-2.85-0.2-3.09-1.33c-0.72,0.93-2.03,1.54-3.64,1.54C169.94,41.28,168.2,40.02,168.2,37.9z M175.54,35.03
			l-2.3,0.5c-1.81,0.36-3.03,0.86-3.03,2.28c0,1.15,0.84,1.83,2.12,1.83c1.74,0,3.21-1.06,3.21-2.58V35.03z"/>
            <path class="st0" d="M185.76,39.55c1.63,0,2.6-1.04,2.94-2.51l1.81,0.84c-0.56,1.96-2.28,3.46-4.74,3.46
			c-3.3,0-5.58-2.51-5.58-6.14c0-3.66,2.28-6.14,5.58-6.14c2.46,0,4.13,1.42,4.7,3.39l-1.76,0.88c-0.34-1.45-1.31-2.51-2.94-2.51
			c-2.1,0-3.55,1.67-3.55,4.38C182.22,37.87,183.66,39.55,185.76,39.55z"/>
            <path class="st0" d="M191.92,35.19c0-3.52,2.24-6.14,5.44-6.14c3.3,0,5.04,2.51,5.04,5.78v0.68h-8.54
			c0.11,2.48,1.54,4.06,3.59,4.06c1.58,0,2.71-0.86,3.07-2.26l1.78,0.63c-0.72,2.1-2.51,3.39-4.85,3.39
			C194.18,41.33,191.92,38.82,191.92,35.19z M193.98,33.94h6.37c-0.05-1.67-0.95-3.16-3-3.16
			C195.63,30.78,194.34,31.94,193.98,33.94z"/>
	</g>
</g>
</svg>
