<svg xmlns="http://www.w3.org/2000/svg" width="249.259" height="130.281" viewBox="0 0 249.259 130.281">
  <defs>
    <style>
      .cls-1 {
        fill: #73aa17;
      }

      .cls-2 {
        fill: #219328;
      }

      .cls-3 {
        fill: #238729;
      }

      .cls-4 {
        fill: #278829;
      }

      .cls-5 {
        fill: #4aa7b8;
      }

      .cls-6 {
        fill: #1c3d52;
      }

      .cls-7 {
        fill: #1d3c22;
      }

      .cls-8 {
        fill: #68c1d7;
      }

      .cls-9 {
        fill: #285028;
      }

      .cls-10 {
        fill: #164c67;
      }

      .cls-11 {
        fill: #a0d7e9;
      }

      .cls-12 {
        fill: #2999be;
      }
    </style>
  </defs>
  <g id="Group_3" data-name="Group 3" transform="translate(1463.592 -11.958)">
    <g id="Group_1" data-name="Group 1" transform="translate(-1463.592 11.958)">
      <path id="Path_1" data-name="Path 1" class="cls-1" d="M41.55,36.422q-3.66-1.2-6.181-2.227t-2.52-2.461a3.123,3.123,0,0,1,1.436-2.52,6.425,6.425,0,0,1,3.954-1.084,11.75,11.75,0,0,1,8.438,3.633l10.2-10.781a18.743,18.743,0,0,0-2.4-2.286,35.995,35.995,0,0,0-8.2-4.453,34.573,34.573,0,0,0-12.772-2.286q-11.661,0-18.458,5.6T8.24,31.178a15.868,15.868,0,0,0,2.52,9.111,15.455,15.455,0,0,0,6.123,5.449,60.089,60.089,0,0,0,7.265,2.931c1.28.42,2.449.822,3.518,1.209L47.143,38.632A56.714,56.714,0,0,0,41.55,36.422Z" transform="translate(-5.542 -11.958)"/>
      <path id="Path_2" data-name="Path 2" class="cls-1" d="M61.279,14.1A34.272,34.272,0,0,0,47.106,27.032L61.279,18.85Z" transform="translate(12.828 -10.944)"/>
      <path id="Path_3" data-name="Path 3" class="cls-1" d="M15.76,38.457,8.942,45.626,10.973,46.8l8.5-4.907a11.924,11.924,0,0,1-2.364-1.766A14.862,14.862,0,0,1,15.76,38.457Z" transform="translate(-5.21 0.567)"/>
      <path id="Path_4" data-name="Path 4" class="cls-2" d="M48.385,25.509a27.68,27.68,0,0,0-3.984,14.5q0,12.244,9.55,21.415a33.109,33.109,0,0,0,8.606,6.01V17.327Z" transform="translate(11.549 -9.42)"/>
      <path id="Path_5" data-name="Path 5" class="cls-2" d="M60.478,60.367A23.017,23.017,0,0,0,48.8,69.159L60.478,75.9Z" transform="translate(13.629 10.922)"/>
      <path id="Path_6" data-name="Path 6" class="cls-2" d="M34.087,64.484q9.689-.6,15.62-5.481,6.768-5.567,6.768-13.594a15.684,15.684,0,0,0-8.643-14.59c-.555-.271-1.115-.5-1.673-.748L26.682,41.316c.972.352,1.864.692,2.664,1.016q2.52,1.027,2.52,2.462a3.121,3.121,0,0,1-1.436,2.518A6.426,6.426,0,0,1,26.474,48.4a12.4,12.4,0,0,1-6.181-1.67c-.549-.311-1.032-.6-1.474-.872l-8.5,4.907Z" transform="translate(-4.559 -3.397)"/>
      <path id="Path_7" data-name="Path 7" class="cls-3" d="M13.029,105.621a28.617,28.617,0,0,0,7.559,2.87,40.409,40.409,0,0,0,9.843,1.172q11.661,0,18.429-5.567T55.627,90.5a15.871,15.871,0,0,0-2.52-9.111c-.124-.183-.264-.337-.392-.512l-41.227,23.8C11.985,104.992,12.5,105.3,13.029,105.621Z" transform="translate(-4.006 20.617)"/>
      <path id="Path_8" data-name="Path 8" class="cls-4" d="M45.506,80.465v32.6H62.035V70.921Z" transform="translate(12.072 15.911)"/>
      <path id="Path_9" data-name="Path 9" class="cls-1" d="M56.735,113.061H60.6V80.43a9.963,9.963,0,0,1,2.031-6.107l-5.894-3.4Z" transform="translate(17.379 15.911)"/>
      <path id="Path_10" data-name="Path 10" class="cls-1" d="M71.171,79.255v29.867h6.112V82.784Z" transform="translate(24.202 19.85)"/>
      <path id="Path_11" data-name="Path 11" class="cls-5" d="M62.63,79.2A8.072,8.072,0,0,1,69.3,76.37c5.347.069,8.487,3.418,8.7,8.94v2.761L84.106,91.6V61.03c-.34-.149-.682-.3-1.037-.436L56.735,75.8Z" transform="translate(17.379 11.03)"/>
      <path id="Path_12" data-name="Path 12" class="cls-6" d="M10.044,43.325,6.609,46.937l.409.481,5.058-2.92Z" transform="translate(-6.313 2.868)"/>
      <path id="Path_13" data-name="Path 13" class="cls-7" d="M6.886,47.042l.588.691a23.673,23.673,0,0,0,2.988,2.842A39.83,39.83,0,0,0,15.5,53.886a28.616,28.616,0,0,0,7.559,2.87A40.41,40.41,0,0,0,32.9,57.928q1.44,0,2.8-.085L11.945,44.122Z" transform="translate(-6.182 3.244)"/>
      <path id="Path_14" data-name="Path 14" class="cls-7" d="M50.355,66.339c-3.25,4.767-4.62,10.574-4.849,16.257v.031l16.529-9.544Z" transform="translate(12.072 13.745)"/>
      <path id="Path_15" data-name="Path 15" class="cls-7" d="M31.984,102.8a6.431,6.431,0,0,1-3.954,1.084,12.407,12.407,0,0,1-6.182-1.67,17.27,17.27,0,0,1-3.838-2.638,14.6,14.6,0,0,1-1.347-1.67L6.408,108.691s.654.8,1,1.172,1.446,1.434,2.989,2.758a29.589,29.589,0,0,0,3.493,2.452l41.228-23.8a15.516,15.516,0,0,0-5.729-4.961,57.237,57.237,0,0,0-7.265-2.959q-3.662-1.2-6.182-2.227t-2.52-2.461a3.123,3.123,0,0,1,1.436-2.52,6.426,6.426,0,0,1,3.956-1.084,11.755,11.755,0,0,1,8.437,3.633l10.2-10.781a27.776,27.776,0,0,0-2.4-2.286,29.1,29.1,0,0,0-8.2-4.453,34.58,34.58,0,0,0-12.774-2.284q-11.661,0-18.457,5.595T8.81,78.105a15.879,15.879,0,0,0,2.52,9.111,15.475,15.475,0,0,0,6.123,5.449A60.012,60.012,0,0,0,24.719,95.6q3.662,1.2,6.181,2.227t2.52,2.461A3.123,3.123,0,0,1,31.984,102.8Z" transform="translate(-6.408 10.223)"/>
      <path id="Path_16" data-name="Path 16" class="cls-8" d="M56.735,60.99V76.528l26.331-15.2A37.613,37.613,0,0,0,69.3,59.043,37.73,37.73,0,0,0,56.735,60.99Z" transform="translate(17.379 10.297)"/>
      <path id="Path_17" data-name="Path 17" class="cls-8" d="M56.735,67.438a32.377,32.377,0,0,0,14.238,3.156,31.422,31.422,0,0,0,9.082-1.318q2.251-.676,4.051-1.414V46.178l-1.121,1.389a13.67,13.67,0,0,1-4.307,3.369,13.158,13.158,0,0,1-6.474,1.67,12.315,12.315,0,0,1-12.6-12.6A12.45,12.45,0,0,1,74.7,27.693L56.735,17.324Z" transform="translate(17.379 -9.422)"/>
      <path id="Path_18" data-name="Path 18" class="cls-9" d="M75.321,107.99H89.608V89.9L75.321,81.651Z" transform="translate(26.164 20.982)"/>
      <path id="Path_19" data-name="Path 19" class="cls-10" d="M89.607,99.709V85.171c0-9.745-3.707-19.642-14.286-24.281V91.461Z" transform="translate(26.164 11.17)"/>
      <path id="Path_20" data-name="Path 20" class="cls-10" d="M78.361,57.187A32.675,32.675,0,0,0,83.4,53.613a24.332,24.332,0,0,0,2.989-2.872q.643-.848,1-1.318L75.43,36.826l-.109.134V58.645A24.934,24.934,0,0,0,78.361,57.187Z" transform="translate(26.164 -0.204)"/>
      <path id="Path_21" data-name="Path 21" class="cls-11" d="M95.23,22.739a17.7,17.7,0,0,0-3.1-3.047,47.307,47.307,0,0,0-4.98-3.486A29.422,29.422,0,0,0,80,13.219a33.391,33.391,0,0,0-23.262,1.9V19.86L74.7,30.229a13.055,13.055,0,0,1,4.1,1.593,17.639,17.639,0,0,1,4.042,2.959c.085.1.146.183.225.28.431.524.783.981,1.043,1.356.032.047.08.106.109.15l2.044-2.153L96.168,23.97Z" transform="translate(17.379 -11.958)"/>
    </g>
    <g id="Group_2" data-name="Group 2" transform="translate(-1331.429 40.978)">
      <path id="Path_22" data-name="Path 22" class="cls-12" d="M103.292,37.1a2.926,2.926,0,0,0-.287-.349,3.656,3.656,0,0,0-.875-.551,3.2,3.2,0,0,0-1.467-.348,2.438,2.438,0,0,0-1.626.526,1.564,1.564,0,0,0-.623,1.222,1.337,1.337,0,0,0,.672,1.162,5.772,5.772,0,0,0,1.626.7q.954.263,1.907.6a3.844,3.844,0,0,1,1.626,1.1,2.85,2.85,0,0,1,.673,1.951,3.287,3.287,0,0,1-1.185,2.585,4.686,4.686,0,0,1-3.191,1.034,5.671,5.671,0,0,1-1.607-.221,5.048,5.048,0,0,1-1.241-.524,7.1,7.1,0,0,1-.85-.619,4.148,4.148,0,0,1-.532-.53l-.159-.234,1.259-1.246c.032.049.078.112.134.19a4.916,4.916,0,0,0,.386.415,4.636,4.636,0,0,0,.642.538,3.6,3.6,0,0,0,.879.421,3.358,3.358,0,0,0,1.088.184,2.985,2.985,0,0,0,1.95-.563,1.776,1.776,0,0,0,.679-1.43,1.424,1.424,0,0,0-.679-1.218,5.557,5.557,0,0,0-1.626-.744q-.948-.276-1.9-.611a4.063,4.063,0,0,1-1.632-1.065,2.642,2.642,0,0,1-.677-1.878A3.08,3.08,0,0,1,97.8,35.228a4.152,4.152,0,0,1,2.866-1.015,5.63,5.63,0,0,1,1.364.165,4.518,4.518,0,0,1,1.094.4,7.285,7.285,0,0,1,.763.489,4.687,4.687,0,0,1,.483.4l.184.183Z" transform="translate(-96.153 -30.459)"/>
      <path id="Path_23" data-name="Path 23" class="cls-12" d="M120.244,39.347a3.722,3.722,0,0,0-.825-2.586,2.792,2.792,0,0,0-2.171-.91,2.951,2.951,0,0,0-2.322,1.088,4.292,4.292,0,0,0-.941,2.91v6.637h-1.748V39.347a3.729,3.729,0,0,0-.825-2.573,2.787,2.787,0,0,0-2.182-.923,2.931,2.931,0,0,0-2.316,1.088,4.312,4.312,0,0,0-.935,2.91v6.637H104.23V34.469h1.748v1.5c.032-.049.074-.112.122-.19a3.216,3.216,0,0,1,.373-.415,4.089,4.089,0,0,1,.666-.538,3.988,3.988,0,0,1,.954-.427,4.07,4.07,0,0,1,1.259-.19,4.873,4.873,0,0,1,1.509.225,4.01,4.01,0,0,1,1.113.526,5.333,5.333,0,0,1,.708.617,3.658,3.658,0,0,1,.434.539l.122.233c.031-.049.077-.125.134-.228a3.075,3.075,0,0,1,.452-.518,5.429,5.429,0,0,1,.788-.654,4.4,4.4,0,0,1,1.162-.514,5.4,5.4,0,0,1,1.595-.225,4.4,4.4,0,0,1,3.344,1.358A5.254,5.254,0,0,1,122,39.347v7.139h-1.761Z" transform="translate(-92.335 -30.459)"/>
      <path id="Path_24" data-name="Path 24" class="cls-12" d="M126.557,38.844a2.9,2.9,0,0,0-.842-2.163,2.956,2.956,0,0,0-2.165-.831,3.847,3.847,0,0,0-1.791.434,3.949,3.949,0,0,0-1.216.885l-.378.427-1.124-1.124c.049-.065.116-.149.2-.25a6.889,6.889,0,0,1,.563-.538,7.633,7.633,0,0,1,.91-.691,5.054,5.054,0,0,1,1.255-.543,5.3,5.3,0,0,1,1.582-.239,4.656,4.656,0,0,1,3.406,1.331,4.455,4.455,0,0,1,1.35,3.3v7.642h-1.75V44.859c-.031.049-.082.116-.152.2a5.326,5.326,0,0,1-.465.451,5.02,5.02,0,0,1-.776.576,4.683,4.683,0,0,1-1.094.446,4.994,4.994,0,0,1-1.4.2,4.465,4.465,0,0,1-3.026-1.065,3.152,3.152,0,0,1-1.228-2.431,3.321,3.321,0,0,1,.9-2.427,4.588,4.588,0,0,1,2.605-1.2Zm-1.093,5.147a3.939,3.939,0,0,0,1.093-2.885V40.35l-4.131.757q-2.249.429-2.262,2.128a1.645,1.645,0,0,0,.667,1.339,2.875,2.875,0,0,0,1.839.53A3.75,3.75,0,0,0,125.464,43.991Z" transform="translate(-85.63 -30.459)"/>
      <path id="Path_25" data-name="Path 25" class="cls-12" d="M134.1,35.973h-.758a3.657,3.657,0,0,0-2.652,1.075,3.748,3.748,0,0,0-1.1,2.8v6.637h-1.748V34.469h1.748V36.1c.032-.049.081-.116.147-.2a4.026,4.026,0,0,1,.464-.452,5.111,5.111,0,0,1,.788-.574,4.943,4.943,0,0,1,1.125-.454,5.43,5.43,0,0,1,1.486-.2h.5Z" transform="translate(-81.173 -30.459)"/>
      <path id="Path_26" data-name="Path 26" class="cls-12" d="M135.235,31.664h1.626v4.009h2.627V37.3h-2.627v7.139q0,1.882,1.626,1.87a3.368,3.368,0,0,0,.8-.1q.4-.1.605-.172l.219-.1v1.627a3.6,3.6,0,0,1-1.7.367,3.2,3.2,0,0,1-2.427-.912,3.588,3.588,0,0,1-.873-2.584V37.3h-2.262V35.673h1.381q1,0,1-1.244Z" transform="translate(-78.808 -31.664)"/>
      <path id="Path_27" data-name="Path 27" class="cls-12" d="M98.106,55.041a5.7,5.7,0,0,1,4.224-1.828,5.781,5.781,0,0,1,2.621.605,5.713,5.713,0,0,1,1.744,1.2l.524.574-1.258,1.246c-.032-.049-.082-.118-.147-.206a6.4,6.4,0,0,0-.434-.489,4.3,4.3,0,0,0-.727-.617,4.2,4.2,0,0,0-1.015-.471,4.108,4.108,0,0,0-1.308-.208,3.98,3.98,0,0,0-2.988,1.339,4.907,4.907,0,0,0,0,6.577A3.98,3.98,0,0,0,102.33,64.1a4.193,4.193,0,0,0,1.992-.5,4.727,4.727,0,0,0,1.37-1l.4-.489,1.246,1.125q-.073.1-.225.274a7.493,7.493,0,0,1-.642.6,7.416,7.416,0,0,1-1.026.744,6.791,6.791,0,0,1-1.387.6,5.607,5.607,0,0,1-1.73.274A5.69,5.69,0,0,1,98.1,63.9a6.416,6.416,0,0,1,.006-8.862Z" transform="translate(-96.071 -21.479)"/>
      <path id="Path_28" data-name="Path 28" class="cls-12" d="M106.868,55.027a6.1,6.1,0,0,1,8.684,0,6.433,6.433,0,0,1,0,8.895,6.117,6.117,0,0,1-8.684,0,6.418,6.418,0,0,1,0-8.895Zm7.432,1.162a4.242,4.242,0,0,0-6.185,0,4.821,4.821,0,0,0,0,6.565,4.226,4.226,0,0,0,6.185.012,4.84,4.84,0,0,0,0-6.577Z" transform="translate(-91.935 -21.479)"/>
      <path id="Path_29" data-name="Path 29" class="cls-12" d="M117.276,55.217c.031-.049.08-.118.146-.209a5.148,5.148,0,0,1,.465-.489,5.233,5.233,0,0,1,.775-.617,5.009,5.009,0,0,1,2.489-.689,4.686,4.686,0,0,1,3.533,1.406,5.136,5.136,0,0,1,1.356,3.727v7.139h-1.76V58.347a3.532,3.532,0,0,0-.912-2.537,3.084,3.084,0,0,0-2.34-.959,3.553,3.553,0,0,0-2.677,1.125,3.982,3.982,0,0,0-1.075,2.872v6.639h-1.75V53.468h1.75Z" transform="translate(-86.996 -21.479)"/>
      <path id="Path_30" data-name="Path 30" class="cls-12" d="M127.128,55.217l.147-.209a5.269,5.269,0,0,1,.464-.489,5.107,5.107,0,0,1,.778-.617A5,5,0,0,1,131,53.213a4.691,4.691,0,0,1,3.533,1.406,5.136,5.136,0,0,1,1.356,3.727v7.139h-1.76V58.347a3.532,3.532,0,0,0-.912-2.537,3.082,3.082,0,0,0-2.34-.959,3.553,3.553,0,0,0-2.677,1.125,3.983,3.983,0,0,0-1.076,2.872v6.639h-1.747V53.468h1.747Z" transform="translate(-82.338 -21.479)"/>
      <path id="Path_31" data-name="Path 31" class="cls-12" d="M136.384,60.106a4.327,4.327,0,0,0,4.254,4,4.483,4.483,0,0,0,2.09-.5,4.286,4.286,0,0,0,1.368-1l.429-.489,1.125,1.125c-.049.065-.121.156-.214.274a6.573,6.573,0,0,1-.611.6,6.471,6.471,0,0,1-1.016.744,6.844,6.844,0,0,1-1.4.6,5.8,5.8,0,0,1-1.766.274,5.686,5.686,0,0,1-4.229-1.828,6.449,6.449,0,0,1-.019-8.862,5.54,5.54,0,0,1,4.126-1.828,5.478,5.478,0,0,1,4.107,1.705,5.942,5.942,0,0,1,1.649,4.309l-.122.9Zm1.381-4.144a4.36,4.36,0,0,0-1.381,2.64h8.141a4.284,4.284,0,0,0-1.314-2.689,3.765,3.765,0,0,0-2.695-1.063A3.873,3.873,0,0,0,137.765,55.962Z" transform="translate(-77.964 -21.479)"/>
      <path id="Path_32" data-name="Path 32" class="cls-12" d="M145.844,55.041a5.7,5.7,0,0,1,4.224-1.828,5.792,5.792,0,0,1,2.623.605,5.675,5.675,0,0,1,1.741,1.2l.527.574L153.7,56.842c-.031-.049-.08-.118-.146-.206a6.083,6.083,0,0,0-.434-.489,4.405,4.405,0,0,0-.726-.617,4.264,4.264,0,0,0-1.016-.471,4.108,4.108,0,0,0-1.308-.208,3.978,3.978,0,0,0-2.988,1.339,4.907,4.907,0,0,0,0,6.577,3.978,3.978,0,0,0,2.988,1.339,4.193,4.193,0,0,0,1.992-.5,4.706,4.706,0,0,0,1.37-1l.4-.489,1.247,1.125c-.049.065-.125.156-.228.274a6.964,6.964,0,0,1-.641.6,7.415,7.415,0,0,1-1.026.744,6.736,6.736,0,0,1-1.389.6,5.591,5.591,0,0,1-1.729.274,5.69,5.69,0,0,1-4.229-1.828,6.416,6.416,0,0,1,.006-8.862Z" transform="translate(-73.507 -21.479)"/>
      <path id="Path_33" data-name="Path 33" class="cls-12" d="M154.941,50.664h1.626v4.009h2.627V56.3h-2.627v7.139c0,1.256.542,1.878,1.626,1.872a3.37,3.37,0,0,0,.8-.1q.4-.1.605-.172l.219-.1v1.626a3.583,3.583,0,0,1-1.7.367,3.209,3.209,0,0,1-2.427-.91,3.59,3.59,0,0,1-.873-2.586V56.3h-2.262V54.673h1.381q1,0,1-1.244Z" transform="translate(-69.494 -22.684)"/>
      <path id="Path_34" data-name="Path 34" class="cls-12" d="M160,60.106a4.127,4.127,0,0,0,1.34,2.813,4.077,4.077,0,0,0,2.914,1.185,4.489,4.489,0,0,0,2.091-.5,4.329,4.329,0,0,0,1.37-1l.427-.489,1.124,1.125q-.073.1-.212.274a7.3,7.3,0,0,1-1.627,1.345,6.824,6.824,0,0,1-1.406.6,5.781,5.781,0,0,1-1.766.274,5.692,5.692,0,0,1-4.229-1.828A6.453,6.453,0,0,1,160,55.041a5.545,5.545,0,0,1,4.126-1.828,5.478,5.478,0,0,1,4.107,1.705,5.943,5.943,0,0,1,1.651,4.309l-.122.9Zm1.383-4.144A4.377,4.377,0,0,0,160,58.6h8.142a4.292,4.292,0,0,0-1.314-2.689,3.771,3.771,0,0,0-2.7-1.063A3.869,3.869,0,0,0,161.381,55.962Z" transform="translate(-66.802 -21.479)"/>
      <path id="Path_35" data-name="Path 35" class="cls-12" d="M177.692,49.643h1.749v17.53h-1.749V65.291c-.031.049-.088.124-.171.225a5.633,5.633,0,0,1-.524.521,5.873,5.873,0,0,1-.869.652,5.084,5.084,0,0,1-1.193.508,5.167,5.167,0,0,1-1.5.219,5.374,5.374,0,0,1-4.029-1.839,6.5,6.5,0,0,1,0-8.831,5.366,5.366,0,0,1,4.029-1.847,4.869,4.869,0,0,1,1.484.225,5.538,5.538,0,0,1,1.2.526,6.188,6.188,0,0,1,.85.617,5.207,5.207,0,0,1,.543.539l.171.233Zm-1.314,8.282a3.973,3.973,0,0,0-2.939-1.387,3.693,3.693,0,0,0-2.782,1.35,4.985,4.985,0,0,0,0,6.553,3.694,3.694,0,0,0,2.782,1.352,3.974,3.974,0,0,0,2.939-1.389,4.652,4.652,0,0,0,0-6.48Z" transform="translate(-62.345 -23.166)"/>
      <path id="Path_36" data-name="Path 36" class="cls-12" d="M103.292,75.1a3.053,3.053,0,0,0-.287-.348,3.609,3.609,0,0,0-.875-.551,3.2,3.2,0,0,0-1.467-.349,2.439,2.439,0,0,0-1.626.527,1.562,1.562,0,0,0-.623,1.222,1.334,1.334,0,0,0,.672,1.16,5.815,5.815,0,0,0,1.626.7c.636.175,1.272.373,1.907.6a3.817,3.817,0,0,1,1.626,1.1,2.846,2.846,0,0,1,.673,1.95,3.292,3.292,0,0,1-1.185,2.586,4.686,4.686,0,0,1-3.191,1.032,5.724,5.724,0,0,1-1.607-.219,5.047,5.047,0,0,1-1.241-.526,6.794,6.794,0,0,1-.85-.619,3.965,3.965,0,0,1-.532-.53l-.159-.233,1.259-1.247c.032.049.078.112.134.19a4.488,4.488,0,0,0,.386.415,4.637,4.637,0,0,0,.642.538,3.547,3.547,0,0,0,.879.423,3.358,3.358,0,0,0,1.088.184,2.985,2.985,0,0,0,1.95-.563,1.777,1.777,0,0,0,.679-1.431,1.421,1.421,0,0,0-.679-1.216,5.52,5.52,0,0,0-1.626-.745q-.948-.276-1.9-.611a4.048,4.048,0,0,1-1.632-1.065,2.64,2.64,0,0,1-.677-1.876A3.08,3.08,0,0,1,97.8,73.229a4.153,4.153,0,0,1,2.866-1.016,5.63,5.63,0,0,1,1.364.165,4.516,4.516,0,0,1,1.094.4,7.055,7.055,0,0,1,.763.489,4.531,4.531,0,0,1,.483.4l.184.183Z" transform="translate(-96.153 -12.499)"/>
      <path id="Path_37" data-name="Path 37" class="cls-12" d="M112.982,82.778c-.032.049-.081.116-.146.2a4.5,4.5,0,0,1-.458.452,5.308,5.308,0,0,1-.778.576,4.672,4.672,0,0,1-1.093.445,5.011,5.011,0,0,1-1.4.2,4.612,4.612,0,0,1-3.49-1.461,5.286,5.286,0,0,1-1.387-3.8V72.387h1.748v7.005a3.616,3.616,0,0,0,.978,2.6,3.182,3.182,0,0,0,2.4,1.028A3.388,3.388,0,0,0,111.93,81.9a4.037,4.037,0,0,0,1.051-2.872V72.387h1.761V84.4h-1.761Z" transform="translate(-92.335 -12.416)"/>
      <path id="Path_38" data-name="Path 38" class="cls-12" d="M115.922,89.742h-1.748V72.471h1.748v1.882c.032-.049.093-.125.178-.227a6.969,6.969,0,0,1,.526-.52,5.6,5.6,0,0,1,.862-.654,5.311,5.311,0,0,1,1.191-.514,5.029,5.029,0,0,1,1.5-.225A5.359,5.359,0,0,1,124.2,74.06a6.508,6.508,0,0,1,.006,8.831,5.36,5.36,0,0,1-4.034,1.839,5.037,5.037,0,0,1-1.484-.219,5.142,5.142,0,0,1-1.2-.526,6.794,6.794,0,0,1-.85-.619,4.628,4.628,0,0,1-.545-.532l-.171-.231Zm1.315-8.024a3.974,3.974,0,0,0,2.939,1.389,3.69,3.69,0,0,0,2.782-1.352,4.985,4.985,0,0,0,0-6.553,3.688,3.688,0,0,0-2.782-1.35,3.974,3.974,0,0,0-2.939,1.389,4.647,4.647,0,0,0,0,6.478Z" transform="translate(-87.635 -12.499)"/>
      <path id="Path_39" data-name="Path 39" class="cls-12" d="M126.033,89.742h-1.748V72.471h1.748v1.882a2.647,2.647,0,0,1,.178-.227,6.583,6.583,0,0,1,.524-.52,5.668,5.668,0,0,1,.861-.654,5.325,5.325,0,0,1,1.193-.514,5.026,5.026,0,0,1,1.5-.225,5.364,5.364,0,0,1,4.029,1.847,6.51,6.51,0,0,1,0,8.831,5.36,5.36,0,0,1-4.034,1.839,5.052,5.052,0,0,1-1.484-.219,5.17,5.17,0,0,1-1.2-.526,6.794,6.794,0,0,1-.85-.619,4.715,4.715,0,0,1-.543-.532l-.171-.231Zm1.314-8.024a3.977,3.977,0,0,0,2.939,1.389,3.69,3.69,0,0,0,2.782-1.352,4.985,4.985,0,0,0,0-6.553,3.688,3.688,0,0,0-2.782-1.35,3.977,3.977,0,0,0-2.939,1.389,4.65,4.65,0,0,0,0,6.478Z" transform="translate(-82.856 -12.499)"/>
      <path id="Path_40" data-name="Path 40" class="cls-12" d="M136.226,86.173h-1.748V68.644h1.748Z" transform="translate(-78.039 -14.185)"/>
      <path id="Path_41" data-name="Path 41" class="cls-12" d="M138.62,69.225a1.151,1.151,0,0,1,1.6,0,1.123,1.123,0,1,1-1.6,0Zm-.066,4.81H140.3V86.051h-1.748Z" transform="translate(-76.234 -14.064)"/>
      <path id="Path_42" data-name="Path 42" class="cls-12" d="M143.531,79.108a4.125,4.125,0,0,0,1.339,2.811,4.077,4.077,0,0,0,2.914,1.185,4.485,4.485,0,0,0,2.091-.5,4.311,4.311,0,0,0,1.37-1l.427-.489,1.125,1.125c-.05.065-.119.156-.214.274a6.388,6.388,0,0,1-.611.6,6.6,6.6,0,0,1-1.015.744,6.876,6.876,0,0,1-1.408.6,5.781,5.781,0,0,1-1.766.274,5.692,5.692,0,0,1-4.229-1.828,6.453,6.453,0,0,1-.019-8.862,5.545,5.545,0,0,1,4.126-1.828,5.481,5.481,0,0,1,4.107,1.705,5.945,5.945,0,0,1,1.651,4.309l-.122.9Zm1.381-4.145a4.371,4.371,0,0,0-1.381,2.64h8.141a4.3,4.3,0,0,0-1.314-2.689,3.778,3.778,0,0,0-2.7-1.063A3.869,3.869,0,0,0,144.912,74.962Z" transform="translate(-74.586 -12.499)"/>
      <path id="Path_43" data-name="Path 43" class="cls-12" d="M158.069,73.973h-.757a3.659,3.659,0,0,0-2.654,1.077,3.743,3.743,0,0,0-1.1,2.8v6.637H151.81V72.471h1.748V74.1c.032-.049.082-.116.147-.2a3.992,3.992,0,0,1,.464-.454,5.39,5.39,0,0,1,.788-.574,4.976,4.976,0,0,1,1.125-.452,5.382,5.382,0,0,1,1.486-.2h.5Z" transform="translate(-69.847 -12.499)"/>
      <path id="Path_44" data-name="Path 44" class="cls-12" d="M98.673,93.217c.032-.049.081-.118.147-.208a4.888,4.888,0,0,1,.464-.489,5.02,5.02,0,0,1,.778-.617,4.53,4.53,0,0,1,1.087-.476,4.622,4.622,0,0,1,1.4-.215,4.685,4.685,0,0,1,3.531,1.406,5.135,5.135,0,0,1,1.358,3.727v7.139h-1.76V96.347a3.535,3.535,0,0,0-.912-2.536,3.08,3.08,0,0,0-2.34-.96,3.55,3.55,0,0,0-2.677,1.125,3.985,3.985,0,0,0-1.077,2.872v6.639H96.925V91.469h1.748Z" transform="translate(-95.788 -3.518)"/>
      <path id="Path_45" data-name="Path 45" class="cls-12" d="M107.929,98.108a4.119,4.119,0,0,0,1.339,2.811,4.077,4.077,0,0,0,2.914,1.185,4.489,4.489,0,0,0,2.091-.5,4.286,4.286,0,0,0,1.368-1l.429-.489,1.125,1.125c-.05.065-.121.156-.214.274a7.4,7.4,0,0,1-1.627,1.345,6.843,6.843,0,0,1-1.4.6,5.8,5.8,0,0,1-1.767.274,5.69,5.69,0,0,1-4.229-1.828,6.451,6.451,0,0,1-.018-8.862,5.537,5.537,0,0,1,4.125-1.828,5.481,5.481,0,0,1,4.107,1.705,5.945,5.945,0,0,1,1.651,4.309l-.122.9Zm1.381-4.146a4.364,4.364,0,0,0-1.381,2.64h8.141a4.307,4.307,0,0,0-1.314-2.689,3.778,3.778,0,0,0-2.7-1.063A3.869,3.869,0,0,0,109.31,93.962Z" transform="translate(-91.413 -3.518)"/>
      <path id="Path_46" data-name="Path 46" class="cls-12" d="M117.737,88.664h1.626v4.01h2.627V94.3h-2.627v7.139c0,1.256.542,1.878,1.626,1.872a3.349,3.349,0,0,0,.8-.1c.265-.066.467-.124.607-.172l.219-.1v1.626a3.583,3.583,0,0,1-1.7.367,3.209,3.209,0,0,1-2.427-.91,3.59,3.59,0,0,1-.873-2.586V94.3h-2.262V92.674h1.381c.669,0,1-.414,1-1.246Z" transform="translate(-87.078 -4.723)"/>
      <path id="Path_47" data-name="Path 47" class="cls-12" d="M130.736,91.387l3,9.267,3.129-9.267h1.882L134.611,103.4h-1.626l-3.007-9.144-2.994,9.144h-1.639l-4.131-12.017H123.1l3.129,9.267,3.007-9.267Z" transform="translate(-84.308 -3.436)"/>
      <path id="Path_48" data-name="Path 48" class="cls-12" d="M135.927,93.029a6.1,6.1,0,0,1,8.687,0,6.432,6.432,0,0,1,0,8.893,6.121,6.121,0,0,1-8.687,0,6.42,6.42,0,0,1,0-8.893Zm7.432,1.162a4.237,4.237,0,0,0-6.184,0,4.819,4.819,0,0,0,0,6.564,4.224,4.224,0,0,0,6.184.012,4.834,4.834,0,0,0,0-6.575Z" transform="translate(-78.199 -3.518)"/>
      <path id="Path_49" data-name="Path 49" class="cls-12" d="M150.848,92.973h-.758a3.659,3.659,0,0,0-2.654,1.077,3.743,3.743,0,0,0-1.1,2.8v6.637h-1.747V91.471h1.747V93.1c.034-.049.082-.116.147-.2a4.12,4.12,0,0,1,.464-.454,5.391,5.391,0,0,1,.788-.574,5,5,0,0,1,1.125-.452,5.382,5.382,0,0,1,1.486-.2h.5Z" transform="translate(-73.26 -3.518)"/>
      <path id="Path_50" data-name="Path 50" class="cls-12" d="M152.28,105.173h-1.748V87.644h1.748V99.539l6.014-6.382h2.126l-4.633,4.877,5.135,7.139h-2.006l-4.253-5.879-2.384,2.5Z" transform="translate(-70.451 -5.205)"/>
    </g>
  </g>
</svg>
